<svg version="1.1" id="sample" xmlns="http://www.w3.org/2000/svg" xmlns:xlink="http://www.w3.org/1999/xlink" x="0" y="0" viewBox="0 0 500 500" xml:space="preserve"><style>.st0{fill:#707070}.st1{fill:#121b3d}.st2{fill:#fff}.st3{fill:#e8e8e8}.st5{fill:#cacaca}.st14{fill:#cbcbca}.st15{fill:#131b3f}.st17{fill:none;stroke:#121b3d;stroke-width:.4;stroke-linejoin:round}</style><g id="g20089" transform="translate(-1248.05 -496.798)"><path transform="matrix(.5936 -.8048 .8048 .5936 57.0516 1348.795)" class="st0" d="M1363.78 616.33h.4v3.16h-.4z" id="線_131"/><g id="パス_1113"><path class="st1" d="M1365.17 618.96l-2.54-1.88.16-.22 2.54 1.88-.16.22z"/><path transform="rotate(-53.58 1364.00528679 617.89157204)" class="st0" d="M1363.64 616.13h.67v3.56h-.67z"/></g><g id="パス_1114"><path class="st2" d="M1364.09 619.53l2.94 2.17c.55.41 1.32.29 1.73-.26.41-.55.29-1.32-.26-1.73l-2.94-2.17-1.47 1.99z"/><path class="st0" d="M1367.76 622.14c-.3 0-.59-.09-.85-.28l-3.1-2.29 1.7-2.31 3.1 2.29c.31.23.51.56.57.94.06.38-.04.76-.26 1.07-.28.37-.72.58-1.16.58zm-3.39-2.66l2.78 2.05c.46.34 1.11.24 1.45-.22.16-.22.23-.5.19-.77-.04-.27-.19-.52-.41-.68l-2.78-2.05-1.23 1.67z"/></g><g id="パス_1115"><path class="st1" d="M1367.76 622.07c-.29 0-.58-.09-.81-.27l-2.94-2.17c-.03-.02-.05-.05-.06-.09 0-.04 0-.07.03-.1l1.47-1.99c.04-.06.13-.07.19-.03l2.94 2.17c.61.45.74 1.31.29 1.92-.26.35-.67.56-1.11.56m-3.48-2.57l2.83 2.09c.49.36 1.18.25 1.54-.24.17-.23.24-.52.2-.81-.04-.29-.2-.55-.44-.72l-2.83-2.09-1.3 1.77z"/><path class="st0" d="M1367.76 622.27c-.34 0-.66-.11-.93-.31l-2.94-2.17c-.07-.05-.12-.13-.13-.22-.01-.09.01-.18.06-.25l1.47-1.99c.05-.07.13-.12.22-.13.09-.02.18.01.25.06l2.94 2.17c.34.25.56.62.62 1.03.06.42-.04.83-.29 1.17-.3.4-.77.64-1.27.64zm0-.28v.08-.08zm-3.2-2.54l2.67 1.97c.19.14.43.2.67.16.24-.04.45-.16.59-.36.14-.19.2-.43.16-.66-.03-.23-.16-.45-.36-.59l-2.67-1.97-1.06 1.45z"/></g><g id="パス_1116"><path class="st3" d="M1361.6 610.14c-2.13-1.57-5.13-1.11-6.7 1.01s-1.12 5.13 1.01 6.7c2.13 1.57 5.13 1.12 6.7-1.01 1.57-2.12 1.12-5.12-1.01-6.7 0 .01 0 .01 0 0zm-.6 5.53c-.88 1.19-2.55 1.44-3.74.56-1.19-.88-1.44-2.55-.56-3.74.88-1.19 2.55-1.44 3.74-.56 1.18.87 1.43 2.55.56 3.74z"/><path class="st0" d="M1358.75 618.99c-1.03 0-2.06-.32-2.95-.97-1.07-.79-1.77-1.95-1.97-3.27s.13-2.63.92-3.71c1.63-2.21 4.76-2.69 6.98-1.06l.01.01c2.21 1.63 2.68 4.76 1.05 6.97-1 1.33-2.51 2.03-4.04 2.03zm.01-9.58c-1.41 0-2.8.65-3.7 1.87-.73.99-1.03 2.2-.84 3.41.18 1.21.83 2.28 1.82 3.01 2.04 1.5 4.91 1.07 6.42-.97 1.5-2.04 1.07-4.91-.96-6.42l.11-.17-.12.16c-.83-.6-1.78-.89-2.73-.89zm.08 7.54c-.59 0-1.19-.18-1.7-.56-.62-.46-1.02-1.12-1.13-1.88s.07-1.52.53-2.13c.94-1.27 2.74-1.55 4.02-.61 1.27.94 1.55 2.74.61 4.02l-.18.36-.04-.1c-.56.59-1.33.9-2.11.9zm.01-5.34c-.76 0-1.51.35-1.99 1-.39.53-.55 1.18-.46 1.84.1.65.45 1.23.98 1.62.53.39 1.18.56 1.84.46.65-.1 1.23-.45 1.62-.98l.07-.09c.72-1.12.47-2.58-.59-3.36-.45-.33-.96-.49-1.47-.49z"/></g><g id="パス_1117"><path class="st1" d="M1358.75 618.92c-2.72 0-4.92-2.21-4.92-4.94 0-2.72 2.21-4.92 4.94-4.92 2.72 0 4.92 2.21 4.92 4.94 0 1.05-.34 2.07-.96 2.92-.94 1.27-2.42 2.01-3.98 2m.01-9.58c-2.57-.01-4.66 2.07-4.67 4.64s2.07 4.66 4.64 4.67c2.57.01 4.66-2.07 4.67-4.64 0-1.48-.7-2.88-1.89-3.76-.79-.58-1.76-.9-2.75-.91"/><path class="st0" d="M1358.76 619.13h-.02c-2.83-.01-5.12-2.31-5.12-5.14.01-2.82 2.3-5.12 5.13-5.12h.01c2.83.01 5.12 2.31 5.12 5.14 0 1.1-.35 2.15-1 3.04-.96 1.3-2.5 2.08-4.12 2.08zm-.01-9.58c-1.19 0-2.3.46-3.14 1.3-.84.84-1.31 1.96-1.31 3.15s.46 2.31 1.3 3.15c.84.84 1.96 1.31 3.15 1.31h.01c1.19 0 2.3-.46 3.14-1.3.84-.84 1.31-1.96 1.31-3.15 0-1.41-.67-2.76-1.81-3.6-.77-.57-1.68-.87-2.63-.87-.01.01-.02.01-.02.01z"/></g><g id="パス_1118"><path class="st1" d="M1360.51 611.82c-1.25-.92-3.01-.65-3.93.59s-.65 3.01.59 3.93c.48.35 1.06.55 1.66.55.14 0 .28-.01.43-.03 1.53-.23 2.59-1.67 2.36-3.2-.11-.74-.51-1.4-1.11-1.84zm.38 3.76c-.83 1.13-2.42 1.37-3.55.54s-1.37-2.42-.54-3.55 2.42-1.37 3.55-.54c.54.4.9 1 1 1.66.11.68-.06 1.35-.46 1.89z"/><path class="st0" d="M1358.84 617.09c-.65 0-1.26-.2-1.78-.59-1.34-.98-1.62-2.87-.64-4.21.48-.65 1.18-1.07 1.97-1.19.79-.12 1.59.08 2.24.55.65.48 1.07 1.18 1.19 1.97.25 1.64-.88 3.18-2.53 3.43-.15.03-.3.04-.45.04zm.01-5.35c-.12 0-.24.01-.35.03-.62.09-1.16.42-1.53.92-.76 1.04-.54 2.5.49 3.27.5.37 1.12.52 1.74.43.62-.09 1.16-.42 1.53-.92.37-.49.52-1.13.43-1.73-.09-.62-.42-1.16-.92-1.53-.41-.31-.89-.47-1.39-.47zm1.62.14l.04-.06-.04.06z"/></g></g><g id="グループ_20125" transform="translate(-1311.618 -491.68)"><g id="グループ_20123"><g id="グループ_20099"><g id="SVGID"><g id="楕円形_331"><circle class="st2" cx="1423.12" cy="638.87" r="7.32"/><path class="st0" d="M1423.12 646.39c-4.15 0-7.52-3.37-7.52-7.52s3.37-7.52 7.52-7.52 7.52 3.37 7.52 7.52-3.37 7.52-7.52 7.52zm0-14.64c-3.93 0-7.12 3.19-7.12 7.12s3.19 7.12 7.12 7.12 7.12-3.19 7.12-7.12-3.19-7.12-7.12-7.12z"/></g></g></g><g id="グループ_20102"><defs><circle id="SVGID_2_" cx="1423.12" cy="638.87" r="7.32"/></defs><clipPath id="SVGID_3_"><use xlink:href="#SVGID_2_" overflow="visible"/></clipPath><g id="グループ_20101" clip-path="url(#SVGID_3_)"><g id="グループ_20100"><g id="パス_1119"><path class="st5" d="M1428.81 644.02l-5.42-5.42-5.44 8.31-4.99-5v-4.28l10.35.79"/><path class="st0" d="M1417.98 647.22l-5.23-5.23v-4.58l10.57.81-.01.14.05-.07 5.6 5.6-.28.28-5.25-5.25-5.45 8.3zm-4.83-5.4l4.76 4.77 5.23-7.98-9.99-.76v3.97z"/></g><g id="パス_1120"><path class="st1" d="M1417.95 646.98c-.02 0-.04-.01-.06-.02l-4.99-5c-.01-.01-.02-.03-.02-.05v-4.28c0-.02.01-.04.03-.06.02-.02.04-.02.06-.02l10.35.79c.04 0 .07.04.07.08s-.04.07-.08.07h-.01l-10.27-.78v4.16l4.9 4.91 5.39-8.23c.01-.02.03-.03.06-.03.02 0 .05 0 .06.02l5.42 5.42c.03.03.03.08 0 .11s-.08.03-.11 0l-5.35-5.35-5.39 8.23c-.01.02-.04.03-.06.03z"/><path class="st0" d="M1417.88 647.19l-.03-.03c-.04-.01-.07-.03-.09-.06l-5-5c-.05-.05-.08-.12-.08-.2v-4.28c0-.08.03-.15.09-.21.05-.05.14-.08.22-.07l10.34.79c.14.01.25.13.26.27l5.42 5.42c.11.11.11.28 0 .39-.11.11-.28.11-.39 0l-5.18-5.18-5.25 8.02c-.05.07-.12.12-.2.12l-.11.02zm-4.65-5.4l4.67 4.68 5.11-7.8-9.78-.75v3.87z"/></g></g></g></g><g id="グループ_20105"><defs><circle id="SVGID_4_" cx="1423.12" cy="638.87" r="7.32"/></defs><clipPath id="SVGID_5_"><use xlink:href="#SVGID_4_" overflow="visible"/></clipPath><g id="グループ_20104" clip-path="url(#SVGID_5_)"><g id="グループ_20103"><g id="パス_1121"><path class="st5" d="M1423.39 638.6v-7.59h-9.21l.54 7.59h8.67"/><path class="st0" d="M1423.59 638.8h-9.06l-.57-7.99h9.62v7.99zm-8.68-.4h8.28v-7.19h-8.79l.51 7.19z"/></g><g id="パス_1122"><path class="st1" d="M1423.39 638.67h-8.67c-.04 0-.07-.03-.08-.07l-.54-7.59c0-.02.01-.04.02-.06.01-.02.04-.03.06-.02h9.21c.04 0 .08.03.08.08v7.59c0 .04-.04.07-.08.07zm-8.6-.15h8.52v-7.43h-9.05l.53 7.43z"/><path class="st0" d="M1423.39 638.87h-8.67c-.15 0-.27-.11-.28-.26l-.54-7.59c0-.08.02-.15.07-.21s.13-.09.2-.09h9.21c.15 0 .28.12.28.28v7.59c0 .07-.03.14-.08.19-.04.06-.11.09-.19.09zm-8.41-.55h8.13v-7.03h-8.63l.5 7.03z"/></g></g></g></g><g id="グループ_20108"><defs><circle id="SVGID_6_" cx="1423.12" cy="638.87" r="7.32"/></defs><clipPath id="SVGID_7_"><use xlink:href="#SVGID_6_" overflow="visible"/></clipPath><g id="グループ_20107" clip-path="url(#SVGID_7_)"><g id="グループ_20106"><g id="パス_1123"><path class="st5" d="M1423.39 638.6l-6.5 4.87 4.63 4.14 1.91-1.42.17-7.32"/><path class="st0" d="M1421.51 647.87l-4.94-4.41 6.7-5.02.24.32-6.31 4.73 4.33 3.86 1.7-1.26.16-7.23.4.01-.17 7.42z"/></g><g id="パス_1124"><path class="st1" d="M1421.52 647.69c-.02 0-.04-.01-.05-.02l-4.63-4.14c-.02-.02-.03-.04-.03-.06 0-.02.01-.04.03-.06l6.5-4.87c.03-.03.08-.02.11.01s.02.08-.02.11l-6.43 4.82 4.51 4.03 1.83-1.36.17-7.28c0-.04.04-.08.08-.08s.08.03.07.08l-.17 7.32c0 .02-.01.05-.03.06l-1.91 1.42c0 .01-.02.02-.03.02z"/><path class="st0" d="M1421.52 647.89c-.07 0-.14-.03-.19-.07l-4.63-4.14c-.06-.05-.1-.13-.09-.22.01-.09.05-.16.11-.21l6.5-4.88c.06-.04.13-.06.2-.05.07.01.14.05.18.11.04.05.06.11.06.17.05.01.09.04.13.07.05.05.08.12.08.2l-.17 7.32c0 .08-.04.16-.11.22l-1.96 1.46-.11.02zm-4.2-4.4l4.21 3.76 1.62-1.21.16-7.04-5.99 4.49z"/></g></g></g></g><g id="グループ_20111"><defs><circle id="SVGID_8_" cx="1423.12" cy="638.87" r="7.32"/></defs><clipPath id="SVGID_9_"><use xlink:href="#SVGID_8_" overflow="visible"/></clipPath><g id="グループ_20110" clip-path="url(#SVGID_9_)"><g id="グループ_20109"><g id="パス_1125"><path class="st1" d="M1428.81 643.55c-.02 0-.04-.01-.05-.02l-5.69-5.02c-.03-.03-.04-.08-.01-.11s.08-.04.11-.01l5.69 5.02c.03.03.03.08.01.11-.02.02-.04.03-.06.03z"/><path class="st0" d="M1428.81 643.75c-.07 0-.13-.02-.18-.07l-5.69-5.02c-.05-.05-.09-.11-.09-.19-.01-.07.02-.14.07-.2.1-.12.28-.13.39-.03l5.69 5.02c.12.1.12.28.02.39-.05.06-.13.1-.21.1zm.08-.37zm-5.69-5.02z"/></g></g></g></g><g id="グループ_20114"><defs><circle id="SVGID_10_" cx="1423.12" cy="638.87" r="7.32"/></defs><clipPath id="SVGID_11_"><use xlink:href="#SVGID_10_" overflow="visible"/></clipPath><g id="グループ_20113" clip-path="url(#SVGID_11_)"><g id="グループ_20112"><g id="パス_1126"><path d="M1423.39 638.69l5.42-4.97-5.42 4.97z" fill="#1c5da9"/><path transform="rotate(-42.524 1426.24275034 636.20275683)" class="st0" d="M1422.42 636.01h7.35v.4h-7.35z"/></g><g id="パス_1127"><path class="st1" d="M1423.39 638.77c-.02 0-.04-.01-.06-.03-.01-.01-.02-.03-.02-.05 0-.02.01-.04.03-.06l5.42-4.97c.03-.03.08-.03.11.01.01.01.02.03.02.05 0 .02-.01.04-.03.06l-5.42 4.97c-.01.01-.03.02-.05.02z"/><path class="st0" d="M1423.39 638.97c-.08 0-.16-.03-.21-.09-.04-.04-.07-.11-.07-.18 0-.08.03-.15.09-.21l5.42-4.96c.06-.05.13-.08.2-.07.07 0 .14.04.19.09.05.05.07.12.07.18 0 .08-.04.16-.1.21l-5.42 4.96c-.03.04-.1.07-.17.07zm.08-.19zm-.16-.18zm5.42-4.97s-.01.01 0 0z"/></g></g></g></g><g id="グループ_20117"><defs><circle id="SVGID_12_" cx="1423.12" cy="638.87" r="7.32"/></defs><clipPath id="SVGID_13_"><use xlink:href="#SVGID_12_" overflow="visible"/></clipPath><g id="グループ_20116" clip-path="url(#SVGID_13_)"><g id="グループ_20115"><g id="長方形_16809"><path class="st5" d="M1423.39 638.6h11.92v9.22h-11.92z"/><path class="st0" d="M1435.51 648.01h-12.32v-9.62h12.32v9.62zm-11.92-.4h11.52v-8.82h-11.52v8.82z"/></g><g id="パス_1128"><path class="st1" d="M1435.31 647.89h-11.92c-.04 0-.08-.03-.08-.08v-9.22c0-.04.03-.08.08-.08h11.92c.04 0 .08.03.08.08v9.22c0 .04-.03.08-.08.08zm-11.84-.16h11.77v-9.06h-11.77v9.06z"/><path class="st0" d="M1435.31 648.09h-11.92c-.15 0-.28-.13-.28-.28v-9.22c0-.15.12-.28.28-.28h11.92c.15 0 .28.12.28.28v9.22c0 .16-.12.28-.28.28zm-11.64-.56h11.37v-8.66h-11.37v8.66z"/></g></g></g></g><g id="グループ_20120"><defs><circle id="SVGID_14_" cx="1423.12" cy="638.87" r="7.32"/></defs><clipPath id="SVGID_15_"><use xlink:href="#SVGID_14_" overflow="visible"/></clipPath><g id="グループ_20119" clip-path="url(#SVGID_15_)"><g id="グループ_20118"><g id="パス_1129"><path class="st1" d="M1428.55 643.4c-.02 0-.05-.01-.06-.02l-10.98-9.12c-.04-.03-.05-.09-.01-.13.04-.04.1-.04.14-.01l10.98 9.12c.04.03.04.09.01.13-.03.02-.06.03-.08.03z"/><path class="st0" d="M1428.55 643.6c-.07 0-.14-.02-.19-.07l-10.98-9.12c-.12-.1-.14-.28-.04-.41.12-.13.3-.14.42-.05l10.98 9.12c.06.05.1.12.1.2.01.08-.02.15-.07.21l-.04.04c-.05.05-.11.08-.18.08zm-.07-.21zm-10.85-9.29z"/></g></g></g></g><g id="グループ_20122"><g id="グループ_20121"><g id="パス_1130"><path class="st1" d="M1423.12 646.26c-4.09 0-7.4-3.31-7.4-7.4s3.31-7.4 7.4-7.4 7.4 3.31 7.4 7.4-3.32 7.4-7.4 7.4zm0-14.64c-4 0-7.24 3.24-7.24 7.24s3.24 7.24 7.24 7.24 7.24-3.24 7.24-7.24c0-3.99-3.24-7.23-7.24-7.24z"/><path class="st0" d="M1423.12 646.47c-4.19 0-7.6-3.41-7.6-7.6 0-4.19 3.41-7.6 7.6-7.6s7.6 3.41 7.6 7.6c-.01 4.18-3.41 7.59-7.6 7.6zm0-14.64c-3.88 0-7.04 3.16-7.04 7.04s3.16 7.04 7.04 7.04 7.04-3.16 7.04-7.04-3.16-7.04-7.04-7.04z"/></g></g></g></g><g id="グループ_20124"><g id="パス_1131"><path d="M1422.98 635.47c1.11.02 2.15.53 2.85 1.38.51.62.77 1.39.76 2.19-.01 1.98-1.63 3.58-3.61 3.57-1.98.01-3.6-1.59-3.61-3.57.01-1.98 1.63-3.58 3.61-3.57z" fill="#f2f3f7"/><path class="st1" d="M1422.96 642.82c-1 0-1.95-.39-2.66-1.1-.72-.71-1.12-1.66-1.12-2.67.01-1.01.4-1.96 1.12-2.68.72-.71 1.66-1.11 2.69-1.1 1.17.02 2.26.55 3 1.46.54.65.82 1.48.8 2.32 0 1.01-.4 1.96-1.12 2.67-.71.71-1.66 1.1-2.67 1.1h-.04zm0-7.15c-.9 0-1.75.35-2.38.98-.64.64-1 1.49-1 2.39 0 .9.36 1.75 1.01 2.39.64.63 1.49.98 2.38.98h.04c.9 0 1.75-.35 2.39-.98.64-.64 1-1.49 1-2.39.02-.75-.24-1.48-.71-2.06-.67-.81-1.65-1.29-2.7-1.31h-.03z"/></g></g></g><g id="グループ_20136" transform="translate(-1457.8 -495.614)"><g id="グループ_20134" transform="translate(1458 495.814)"><g id="グループ_20128"><g id="グループ_20126"><g id="パス_1132"><path class="st14" d="M109.9 174.61l-.59-1.51h-4.92v10.85h12.12l.37-6.77.18-2.57h-7.16z"/><path class="st0" d="M116.7 184.15h-12.51V172.9h5.25l.59 1.51h7.24l-.2 2.78-.37 6.96zm-12.11-.4h11.73l.36-6.58.17-2.36h-7.08l-.59-1.51h-4.58v10.45z"/></g><g id="パス_1133"><path class="st15" d="M116.5 184.02h-12.11c-.04 0-.08-.03-.08-.07V173.1c0-.04.04-.07.08-.07h4.91c.03 0 .06.02.07.05l.57 1.46h7.1c.02 0 .04.01.06.02.01.01.02.03.02.05l-.18 2.57-.37 6.77c0 .05-.03.07-.07.07zm-12.03-.14h11.96l.36-6.7.18-2.49h-7.07c-.03 0-.06-.02-.07-.05l-.57-1.46h-4.78v10.7z"/><path class="st0" d="M104.38 184.22c-.06 0-.13-.03-.18-.07-.05-.05-.08-.12-.09-.19V173.1c0-.08.03-.15.09-.2.05-.05.13-.08.2-.07h4.9c.1-.01.21.06.26.17l.53 1.34h6.96c.07.01.15.03.2.08.06.06.08.14.08.22l-.18 2.56-.37 6.77c-.02.15-.13.28-.28.26h-12.12c.01-.01.01-.01 0-.01zm.29-.54h11.57l.35-6.51.16-2.28h-6.86c-.11 0-.21-.07-.25-.17l-.53-1.34h-4.44v10.3z"/></g></g><g id="グループ_20127" transform="translate(.77 2.635)"><g id="パス_1134"><path class="st14" d="M106.57 173.1h12.02l-2.73 8.21h-11.48l2.19-8.21z"/><path class="st0" d="M116.01 181.52h-11.88l2.29-8.62h12.46l-2.87 8.62zm-11.36-.4h11.07l2.6-7.81h-11.59l-2.08 7.81z"/></g><g id="パス_1135"><path class="st15" d="M115.86 181.39h-11.47c-.02 0-.05-.01-.06-.03-.01-.02-.02-.04-.01-.06l2.19-8.22c.01-.03.04-.06.07-.05h12.02c.02 0 .05.01.06.03.01.02.02.04.01.07l-2.73 8.21c-.02.03-.05.05-.08.05zm-11.37-.15h11.31l2.68-8.07h-11.85l-2.14 8.07z"/><path class="st0" d="M115.86 181.59h-11.47c-.08 0-.16-.04-.21-.1-.06-.07-.08-.16-.05-.25l2.18-8.21c.04-.13.13-.23.28-.2h12.01c.09 0 .17.04.22.1.06.07.07.16.05.25l-2.73 8.21c-.05.12-.16.2-.28.2zm-11.11-.55h10.91l2.55-7.67h-11.42l-2.04 7.67z"/></g></g></g><g id="グループ_20133" transform="translate(7.642 1.032)"><g id="グループ_20129" transform="translate(0 3.662)"><g id="パス_1136"><path class="st2" d="M112.55 179.26c.03-.26.05-.51.05-.77 0-2.98-1.84-5.39-4.11-5.39s-4.11 2.41-4.11 5.39c0 .26.02.51.05.77h8.12z"/><path class="st0" d="M112.73 179.46h-8.48l-.02-.18c-.03-.26-.05-.53-.05-.79 0-3.08 1.93-5.59 4.31-5.59s4.31 2.51 4.31 5.59c0 .27-.02.53-.05.79l-.02.18zm-8.12-.4h7.76c.02-.19.03-.38.03-.57 0-2.86-1.75-5.19-3.91-5.19-2.15 0-3.91 2.33-3.91 5.19l.03.57z"/></g><g id="パス_1137"><path class="st15" d="M112.55 179.34h-8.12c-.04 0-.07-.03-.07-.07-.03-.26-.05-.52-.05-.78 0-3.01 1.87-5.46 4.18-5.46s4.18 2.45 4.18 5.46c0 .26-.02.52-.05.78 0 .04-.03.07-.07.07zm-8.05-.15h7.99c.03-.23.04-.47.04-.7 0-2.93-1.81-5.32-4.04-5.32s-4.04 2.39-4.04 5.32c.01.23.02.47.05.7z"/><path class="st0" d="M112.55 179.54h-8.12c-.14 0-.26-.11-.27-.24-.03-.26-.05-.53-.05-.8 0-3.12 1.96-5.66 4.38-5.66s4.38 2.54 4.38 5.66c0 .27-.02.54-.05.8-.01.13-.13.24-.27.24zm-7.87-.55h7.63c.01-.17.02-.33.02-.5 0-2.82-1.72-5.12-3.83-5.12-2.11 0-3.83 2.3-3.83 5.12-.01.17 0 .33.01.5z"/></g></g><g id="グループ_20130" transform="translate(1.296 6.764)"><g id="パス_1138"><path class="st2" d="M104.39 176.16s.24-2.57.76-3.08"/><path class="st0" d="M104.59 176.18l-.4-.04c.03-.27.27-2.66.81-3.2l.28.28c-.33.34-.6 1.99-.69 2.96z"/></g><g id="パス_1139"><path class="st15" d="M104.46 176.17l-.15-.01c.01-.11.25-2.6.78-3.13l.1.1c-.48.49-.73 3.01-.73 3.04z"/><path class="st0" d="M104.64 176.39l-.54-.05.02-.2c.04-.45.29-2.7.84-3.25l.14-.14.38.38-.14.14c-.35.35-.62 2.26-.68 2.91l-.02.21z"/></g></g><g id="グループ_20131" transform="translate(6.175 6.771)"><g id="パス_1140"><path class="st2" d="M104.37 173.07c.58.92.89 1.99.9 3.08"/><path class="st0" d="M105.07 176.16c-.01-1.05-.31-2.08-.87-2.98l.34-.21c.6.96.92 2.06.93 3.18l-.4.01z"/></g><g id="パス_1141"><path class="st15" d="M105.2 176.16c-.02-1.08-.32-2.13-.89-3.04l.11-.09c.59.94.91 2.01.92 3.12l-.14.01z"/><path class="st0" d="M105.01 176.37v-.21c-.02-1.04-.31-2.06-.86-2.94l-.1-.15.43-.33.12.19c.61.97.94 2.08.95 3.22v.19l-.54.03z"/></g></g><g id="グループ_20132" transform="translate(2.054)"><g id="楕円形_339"><circle class="st2" cx="106.44" cy="175.16" r="2.05"/><path class="st0" d="M106.44 177.41c-1.24 0-2.25-1.01-2.25-2.25s1.01-2.25 2.25-2.25 2.25 1.01 2.25 2.25-1.01 2.25-2.25 2.25zm0-4.11c-1.02 0-1.85.83-1.85 1.85s.83 1.85 1.85 1.85 1.85-.83 1.85-1.85-.83-1.85-1.85-1.85z"/></g><g id="パス_1142"><path class="st15" d="M106.44 177.28c-1.17 0-2.13-.95-2.13-2.13s.95-2.13 2.13-2.13c1.17 0 2.13.95 2.13 2.13s-.96 2.13-2.13 2.13zm0-4.11c-1.09 0-1.98.89-1.98 1.98s.89 1.98 1.98 1.98 1.98-.89 1.98-1.98c0-1.09-.89-1.98-1.98-1.98z"/><path class="st0" d="M106.44 177.48c-1.28 0-2.33-1.04-2.33-2.33s1.04-2.33 2.33-2.33c1.28 0 2.33 1.04 2.33 2.33s-1.05 2.33-2.33 2.33zm0-4.11c-.98 0-1.78.8-1.78 1.78s.8 1.78 1.78 1.78 1.78-.8 1.78-1.78-.8-1.78-1.78-1.78z"/></g></g></g></g><g id="グループ_20135" transform="translate(1461.481 499.673)"><g id="長方形_16810"><path class="st2" d="M106.49 173.23l.3.08c.39.11.62.52.51.91l-1.07 3.72c-.11.39-.52.62-.91.51l-.3-.08c-.39-.11-.62-.52-.51-.91l1.07-3.72c.11-.39.52-.62.91-.51z"/><path class="st0" d="M105.52 178.68c-.09 0-.17-.01-.26-.04l-.3-.08c-.24-.07-.44-.23-.56-.45-.12-.22-.15-.47-.08-.71l1.06-3.72c.14-.5.66-.78 1.16-.64l.29.08c.5.14.78.66.64 1.16L106.4 178c-.07.24-.23.44-.45.56-.12.08-.27.12-.43.12zm.77-5.28c-.23 0-.45.15-.52.39l-1.06 3.72c-.04.14-.02.28.05.41.07.13.18.22.32.26l.3.08c.14.04.28.02.41-.05.13-.07.22-.18.26-.32l1.07-3.72c.08-.28-.08-.58-.37-.66l-.29-.08c-.07-.02-.12-.03-.17-.03z"/></g><g id="パス_1143"><path class="st15" d="M105.63 178.59c-.06 0-.12-.01-.18-.02l-.6-.17c-.34-.1-.54-.46-.45-.8l1.15-4.03c.1-.34.46-.54.8-.45l.6.17c.34.1.54.46.45.8l-1.15 4.03c-.08.28-.33.47-.62.47zm-.14-.16c.27.08.55-.08.63-.35l1.15-4.03c.08-.27-.08-.55-.35-.63l-.6-.17c-.27-.08-.55.08-.63.35l-1.15 4.03c-.08.27.08.55.35.62l.6.18z"/><path class="st0" d="M105.63 178.79c-.08 0-.16-.01-.23-.03l-.6-.17c-.45-.13-.71-.6-.58-1.05l1.15-4.03c.13-.45.59-.71 1.05-.58l.6.17c.45.13.71.6.58 1.05l-1.15 4.03c-.11.36-.44.61-.82.61zm-.08-.55c.16.05.33-.05.38-.21l1.15-4.03c.05-.16-.05-.33-.21-.38l-.6-.17c-.08-.02-.16-.01-.23.03s-.12.1-.15.18l-1.15 4.03c-.02.08-.01.16.03.23.04.06.09.11.16.14l.07.02.55.16z"/></g></g></g><g id="グループ_20151" transform="translate(-1413.162 -494.203)"><g id="グループ_20148" transform="translate(1413.362 494.403)"><g id="グループ_20143" transform="translate(0 1.792)"><g id="グループ_20137" transform="translate(.125 .125)"><g id="SVGID_1_"><path class="st0" d="M107.46 219.84c-.79 0-1.44-.64-1.44-1.43V207.5c0-.8.65-1.44 1.45-1.44h10.25c.38 0 .75.15 1.02.42.28.27.43.63.43 1.02v10.91c0 .39-.15.75-.43 1.02-.27.27-.63.42-1.02.42l-.01-.2v.2h-10.24l-.01-.01zm0-13.39c-.58 0-1.05.47-1.05 1.04v10.9c0 .29.11.55.31.74.2.19.46.3.73.3h10.26c.58 0 1.04-.47 1.05-1.04v-10.9c0-.29-.11-.55-.31-.74-.2-.19-.46-.3-.73-.3h-10.26c.01 0 .01 0 0 0z" id="パス_1144"/></g></g><g transform="translate(.125 .125)" id="グループ_20140"><defs><path id="SVGID_16_" d="M117.71 219.64h-10.24c-.69.01-1.25-.55-1.26-1.23V207.5c0-.69.56-1.25 1.25-1.24h10.25c.69 0 1.25.55 1.26 1.24v10.91c-.01.68-.57 1.23-1.26 1.23z"/></defs><clipPath id="SVGID_17_"><use xlink:href="#SVGID_16_" overflow="visible"/></clipPath><g id="グループ_20139" clip-path="url(#SVGID_17_)"><g id="グループ_20138" transform="translate(-5.092 -3.178)"><g id="長方形_16811"><path class="st5" d="M106.34 206.39h21.88v6.02h-21.88z"/><path class="st0" d="M128.42 212.61h-22.28v-6.42h22.28v6.42zm-21.88-.4h21.48v-5.62h-21.48v5.62z"/></g><g id="パス_1145"><path class="st1" d="M128.22 212.54h-21.88c-.07 0-.13-.06-.13-.13v-6.02c0-.07.06-.13.13-.13h21.88c.07 0 .13.06.13.13v6.02c0 .07-.06.13-.13.13zm-21.75-.26h21.62v-5.76h-21.62v5.76z"/><path class="st0" d="M106.34 212.74c-.08 0-.17-.03-.23-.09s-.1-.14-.1-.23v-6.02c0-.18.15-.33.33-.33h21.88c.18 0 .33.15.33.33v6.02c0 .18-.15.33-.33.33h-21.88v-.01zm.33-.66h21.22v-5.36h-21.22v5.36z"/></g></g></g></g><g id="グループ_20142"><g id="グループ_20141"><g id="パス_1147"><path class="st1" d="M117.83 219.9H107.6c-.76 0-1.38-.61-1.38-1.37v-10.89c0-.76.62-1.37 1.38-1.37h10.23c.76 0 1.38.61 1.38 1.37v10.89c0 .36-.14.71-.39.96-.26.26-.62.41-.99.41zm-10.23-13.38c-.62 0-1.12.5-1.12 1.11v10.89c0 .62.51 1.12 1.12 1.11h10.23c.3 0 .59-.12.81-.33.21-.21.32-.49.32-.78v-10.89c0-.62-.51-1.12-1.12-1.11H107.6z"/><path class="st0" d="M117.83 220.1H107.6h-.01c-.87 0-1.57-.7-1.58-1.57v-10.89c.01-.87.71-1.57 1.58-1.57h10.24c.87 0 1.57.7 1.58 1.57v10.89c0 .41-.16.81-.45 1.1-.3.29-.71.47-1.13.47zm-10.24-.66h10.23c.25 0 .49-.1.66-.27.17-.17.26-.4.26-.63v-10.9c0-.5-.42-.91-.92-.91h-10.23c-.51 0-.92.41-.92.92v10.89c0 .49.42.9.92.9z"/></g></g></g></g><g id="グループ_20144" transform="translate(3.58)"><g id="パス_1148"><path class="st1" d="M106.34 209.58c-.07 0-.13-.06-.13-.13v-3.07c0-.07.06-.13.13-.13s.13.06.13.13v3.07c-.01.07-.06.13-.13.13z"/><path class="st0" d="M106.34 209.78c-.18 0-.33-.15-.33-.33v-3.07c0-.18.15-.33.33-.33s.33.15.33.33v3.07c-.01.18-.15.33-.33.33z"/></g></g><g id="グループ_20145" transform="translate(6.767)"><g id="パス_1149"><path class="st1" d="M106.34 209.58c-.07 0-.13-.06-.13-.13v-3.07c0-.07.06-.13.13-.13s.13.06.13.13v3.07c-.01.07-.06.13-.13.13z"/><path class="st0" d="M106.34 209.78c-.18 0-.33-.15-.33-.33v-3.07c0-.18.15-.33.33-.33s.33.15.33.33v3.07c-.01.18-.15.33-.33.33z"/></g></g><g id="グループ_20146" transform="translate(9.965)"><g id="パス_1150"><path class="st1" d="M106.34 209.58c-.07 0-.13-.06-.13-.13v-3.07c0-.07.06-.13.13-.13s.13.06.13.13v3.07c-.01.07-.06.13-.13.13z"/><path class="st0" d="M106.34 209.78c-.18 0-.33-.15-.33-.33v-3.07c0-.18.15-.33.33-.33s.33.15.33.33v3.07c-.01.18-.15.33-.33.33z"/></g></g></g><g id="グループ_20150" transform="translate(1417.795 501.267)"><g id="グループ_20149"><g id="パス_1152"><path d="M109.47 212.26h-.63v-1.68h-2.62v-.42l2.56-3.9h.69v3.8h.82v.51h-.82v1.69zm-2.58-2.2h1.94v-2.13c0-.33.02-.65.03-.96h-.03c-.18.37-.33.62-.48.9l-1.46 2.18v.01z" fill="#040000"/><path class="st0" d="M109.67 212.46h-1.03v-1.68h-2.62v-.68l.03-.05 2.62-3.99h1v3.8h.82v.91h-.82v1.69zm-.64-.4h.23v-1.69h.82v-.11h-.82v-3.8h-.38l-2.47 3.76v.16h2.62v1.68zm0-1.8h-2.34v-.28l1.61-2.44c.11-.2.22-.4.35-.66l.05-.11h.33l.02.21-.01.32c-.01.21-.02.42-.02.64v2.32zm-1.77-.4h1.38v-1.93-.16l-.11.19-1.27 1.9z"/></g></g></g></g><g id="グループ_20157" transform="translate(-1359.407 -494.304)"><g id="グループ_20152" transform="translate(1361.607 494.504)"><g id="パス_1153"><path class="st1" d="M117.66 246.05h-14.73c-.07 0-.13-.05-.14-.13v-8.74c0-.07.06-.13.13-.13h14.73c.07 0 .13.05.14.13v8.74c0 .07-.06.13-.13.13zm-14.6-.26h14.46v-8.49h-14.46v8.49z"/><path class="st0" d="M102.92 246.25c-.08 0-.16-.03-.22-.09s-.1-.14-.1-.23v-8.75c0-.09.04-.18.1-.24s.17-.1.24-.09h14.72c.17-.02.33.14.33.32v8.75c-.01.19-.15.31-.34.33h-14.73zm.34-.66h14.06v-8.09h-14.06v8.09z"/></g></g><g id="グループ_20153" transform="translate(1361.608 494.504)"><g id="パス_1154"><path class="st1" d="M110.37 243.74c-.03 0-.07-.01-.09-.03l-7.45-6.43c-.04-.03-.05-.09-.04-.14.02-.05.07-.08.13-.08h14.73c.05 0 .1.03.13.08.02.05.01.11-.03.14l-7.28 6.43c-.03.02-.07.03-.1.03zm-7.1-6.43l7.09 6.13 6.94-6.13h-14.03z"/><path class="st0" d="M110.37 243.94c-.08 0-.16-.03-.22-.08l-7.45-6.43c-.1-.09-.14-.24-.09-.37.06-.13.18-.21.31-.21h14.73c.12 0 .25.08.31.2.06.13.02.28-.09.37l-7.28 6.43c-.06.06-.13.09-.22.09zm-6.56-6.43l6.56 5.67 6.42-5.67h-12.98z"/></g></g><g id="グループ_20155" transform="translate(1361.647 498.911)"><g id="パス_1156"><path class="st1" d="M102.96 241.62l-.17-.18 4.71-4.39.17.18-4.71 4.39z"/><path class="st0" d="M102.95 241.9l-.44-.47 5-4.66.44.47z"/></g></g><g id="グループ_20156" transform="translate(1371.943 498.913)"><g id="パス_1157"><path class="st1" d="M107.24 241.62l-4.45-4.39.18-.18 4.45 4.39-.18.18z"/><path transform="matrix(.7021 -.712 .712 .7021 -139.1086 146.1289)" class="st0" d="M104.78 236.01h.65v6.65h-.65z"/></g></g></g><g id="グループ_20158" transform="translate(-1204.537 -411.884)"><g id="パス_1158"><path class="st2" d="M1323.46 678.59v-1.82h-1.74c-.1-.67-.35-1.31-.72-1.87l1.21-1.08-1.22-1.35-1.26 1.13c-.52-.36-1.11-.62-1.73-.75v-1.65h-1.82v1.64c-.64.12-1.26.36-1.8.72l-1.11-1.1-1.29 1.29 1.11 1.1c-.39.58-.65 1.25-.76 1.94h-1.71v1.82h1.79c.13.55.36 1.07.68 1.53l-1.11 1.1 1.29 1.29 1.11-1.1c.51.34 1.08.58 1.68.7v1.92h1.82v-1.89c.6-.11 1.17-.33 1.69-.65l1.35 1.2 1.21-1.36-1.23-1.08c.35-.5.61-1.05.76-1.64h1.8v-.04zm-6.51 1.17c-1.29 0-2.33-1.05-2.32-2.34 0-1.29 1.05-2.33 2.34-2.32 1.28 0 2.32 1.05 2.32 2.33-.01 1.29-1.05 2.33-2.34 2.33z"/><path class="st0" d="M1318.07 684.26h-2.22v-1.96c-.52-.13-1-.33-1.45-.61l-1.13 1.13-1.57-1.57 1.13-1.13c-.25-.41-.45-.84-.57-1.3h-1.84v-2.22h1.74c.11-.61.34-1.19.67-1.71l-1.13-1.13 1.57-1.57 1.13 1.13c.49-.3 1.01-.51 1.57-.63v-1.67h2.23v1.7c.54.13 1.05.35 1.51.65l1.29-1.16 1.49 1.65-1.23 1.1c.31.5.52 1.05.63 1.63h1.77v2.25h-1.85c-.14.5-.36.98-.65 1.41l1.25 1.1-1.48 1.66-1.39-1.24c-.46.27-.95.46-1.47.57v1.92zm-1.82-.4h1.42V682l.16-.03c.58-.11 1.12-.32 1.62-.63l.13-.08 1.32 1.17.94-1.06-1.21-1.07.1-.15c.34-.48.58-1.01.73-1.58l.04-.15h1.76v-1.45h-1.71l-.03-.17c-.1-.64-.33-1.25-.69-1.79l-.09-.14 1.19-1.06-.95-1.05-1.23 1.11-.13-.09c-.5-.35-1.06-.59-1.66-.71l-.16-.03v-1.62h-1.42v1.6l-.16.03c-.62.11-1.2.35-1.73.7l-.14.09-1.08-1.08-1.01 1.01 1.08 1.08-.09.14c-.38.55-.63 1.2-.73 1.86l-.03.17h-1.68v1.42h1.75l.04.15c.13.53.35 1.02.65 1.47l.09.14-1.08 1.07 1.01 1 1.08-1.07.14.09c.49.33 1.04.55 1.61.68l.16.03v1.86zm.7-3.9c-1.4 0-2.53-1.14-2.53-2.54 0-1.39 1.14-2.52 2.53-2.52h.01c1.39 0 2.52 1.14 2.52 2.53s-1.13 2.53-2.53 2.53zm0-.4c1.18 0 2.13-.96 2.14-2.13 0-1.17-.95-2.13-2.12-2.13-1.17 0-2.13.95-2.13 2.13-.02 1.17.93 2.13 2.11 2.13z"/></g><g id="パス_1159"><path class="st1" d="M1317.87 684.13h-1.82c-.05 0-.09-.04-.09-.08v-1.85c-.56-.13-1.1-.35-1.58-.66l-1.06 1.05c-.03.03-.09.03-.12 0l-1.29-1.28c-.03-.03-.03-.09 0-.12l1.06-1.05c-.29-.44-.5-.92-.63-1.43h-1.72c-.05 0-.08-.04-.08-.09v-1.82c0-.05.04-.08.08-.08h1.64c.11-.66.35-1.28.72-1.84l-1.06-1.05c-.03-.03-.03-.09 0-.12l1.29-1.28c.03-.03.09-.03.12 0l1.06 1.05c.52-.33 1.1-.57 1.7-.68v-1.56c0-.05.04-.08.08-.09h1.82c.05 0 .08.04.08.09v1.58c.58.13 1.14.37 1.64.7l1.21-1.09c.02-.01.04-.02.06-.02.02 0 .04.01.06.03l1.22 1.35c.02.02.02.04.02.06 0 .02-.01.04-.03.06l-1.15 1.03c.34.54.57 1.14.68 1.77h1.67c.05 0 .08.04.08.09v1.85c0 .05-.04.08-.08.08h-1.73c-.15.55-.39 1.07-.71 1.54l1.17 1.03c.02.01.03.04.03.06 0 .02-.01.04-.02.06l-1.21 1.36c-.03.04-.08.04-.12.01l-1.3-1.15c-.49.3-1.03.51-1.59.62v1.82c-.02.02-.05.05-.1.05zm-1.74-.17h1.65v-1.8c0-.04.03-.08.07-.08.59-.11 1.15-.33 1.66-.64.03-.02.07-.01.1.01l1.29 1.14 1.09-1.23-1.16-1.02c-.03-.03-.04-.08-.01-.11.35-.49.6-1.03.74-1.61.01-.04.04-.06.08-.06h1.72v-1.67h-1.65c-.04 0-.08-.03-.09-.07-.1-.65-.34-1.28-.7-1.83-.02-.04-.02-.08.02-.11l1.14-1.02-1.1-1.22-1.19 1.08c-.03.03-.07.03-.11.01-.51-.36-1.09-.6-1.7-.73-.04-.01-.07-.04-.07-.08v-1.57h-1.65v1.54c0 .04-.03.08-.07.08-.63.11-1.23.35-1.77.71-.03.02-.08.02-.11-.01l-1.05-1.04-1.17 1.17 1.05 1.04c.03.03.03.07.01.11-.39.57-.64 1.22-.74 1.9-.01.04-.04.07-.08.07h-1.62v1.64h1.7c.04 0 .07.03.08.07.13.53.36 1.04.66 1.5.02.03.02.08-.01.11l-1.05 1.04 1.17 1.17 1.05-1.04c.03-.03.07-.03.11-.01.5.33 1.06.57 1.65.69.04.01.07.04.07.08l-.01 1.79zm.82-4.12c-1.33 0-2.41-1.09-2.4-2.42 0-1.33 1.09-2.41 2.42-2.4 1.33 0 2.4 1.08 2.4 2.41.01.64-.24 1.25-.69 1.7-.46.46-1.08.71-1.73.71zm0-4.65c-1.24 0-2.24 1.01-2.23 2.25 0 1.24 1.01 2.24 2.25 2.23.6 0 1.17-.24 1.58-.66.42-.42.65-.99.64-1.58 0-1.24-1-2.24-2.24-2.24z"/><path class="st0" d="M1316.04 684.33c-.07 0-.14-.03-.19-.08-.06-.05-.09-.13-.09-.2v-1.69c-.48-.12-.93-.31-1.35-.57l-.94.94c-.12.11-.29.11-.4.01l-1.3-1.29c-.09-.08-.11-.21-.06-.32v-.03l1-1c-.23-.38-.41-.78-.53-1.21h-1.57c-.16 0-.29-.13-.29-.29v-1.82c0-.16.13-.29.29-.29h1.47c.12-.57.33-1.11.63-1.61l-.94-.94c-.1-.1-.11-.26-.03-.37l.05-.09h.04l1.23-1.23c.11-.11.29-.11.4 0l.95.94c.46-.27.95-.47 1.47-.59v-1.4c0-.16.13-.29.29-.29h1.82c.16 0 .28.13.28.29v1.42c.5.13.98.33 1.42.61l1.09-.98c.06-.05.13-.07.19-.07.08 0 .15.04.2.09l1.22 1.35c.05.05.08.13.07.2 0 .08-.04.15-.1.2l-1.02.92c.28.48.48.99.59 1.53h1.5c.16 0 .29.13.29.29v1.85c0 .16-.13.29-.29.29h-1.58c-.14.46-.34.9-.6 1.31l1.04.92c.06.05.09.12.1.2.01.07-.02.15-.08.21l-1.2 1.35c-.05.06-.12.09-.2.09-.08.01-.15-.02-.21-.07l-1.19-1.05c-.43.24-.89.42-1.37.53v1.66c0 .16-.13.28-.28.28h-1.82c.01 0 .01 0 0 0zm.29-.57h1.25v-1.6c0-.14.1-.25.23-.28.57-.1 1.1-.31 1.59-.61.11-.07.24-.05.34.03l1.14 1.01.83-.93-1.01-.89c-.11-.09-.13-.26-.05-.38.33-.47.57-.99.72-1.55.03-.13.15-.22.28-.22h1.52v-1.27h-1.45c-.14 0-.26-.1-.28-.24-.1-.63-.32-1.22-.67-1.76-.08-.12-.05-.27.05-.37l1-.89-.83-.92-1.05.94c-.1.09-.24.1-.35.02-.49-.34-1.04-.58-1.63-.7-.13-.03-.23-.15-.23-.28v-1.37h-1.25v1.34c0 .14-.1.25-.23.28-.61.11-1.18.34-1.7.68-.11.08-.27.06-.37-.04l-.9-.9-.88.88.9.9c.1.1.11.25.04.36-.37.54-.61 1.17-.71 1.82-.02.14-.14.24-.28.24h-1.42v1.24h1.5c.13 0 .24.09.28.22.13.52.34 1 .64 1.44.08.11.06.26-.03.36l-.9.9.88.88.9-.9c.1-.1.25-.11.36-.04.48.32 1.01.54 1.58.66.13.03.23.14.23.28l-.04 1.66zm.63-3.72h-.02c-1.44 0-2.61-1.18-2.6-2.62 0-.7.28-1.35.77-1.84s1.15-.76 1.84-.76h.01c1.43 0 2.6 1.17 2.6 2.61.01.68-.27 1.36-.75 1.84-.48.49-1.16.77-1.85.77zm-.01-4.65c-.54 0-1.06.22-1.44.6-.38.39-.59.9-.59 1.44 0 .55.22 1.06.6 1.44.39.38.9.59 1.44.59h.01c.54 0 1.06-.22 1.44-.6.38-.38.59-.9.58-1.43 0-1.12-.92-2.04-2.04-2.04z"/></g></g><g id="グループ_20166" transform="translate(-1498.639 -273.762)"><g id="グループ_20159"><g id="パス_1160"><path class="st3" d="M1616.18 567.5h-8.32c-.59 0-1.06-.47-1.06-1.06v-5.25c0-.59.47-1.06 1.06-1.06h8.32c.59 0 1.06.47 1.06 1.06v5.25c0 .58-.47 1.06-1.06 1.06z"/><path class="st0" d="M1607.85 567.7c-.34 0-.65-.13-.89-.37s-.37-.55-.37-.89v-5.25c0-.34.13-.65.37-.89s.55-.37.89-.37h8.33c.69 0 1.26.56 1.26 1.26v5.25c0 .7-.56 1.26-1.26 1.26h-8.33c.01 0 .01 0 0 0zm.01-7.38c-.23 0-.45.09-.61.25-.16.16-.25.38-.25.61v5.25c0 .23.09.45.25.61s.38.25.61.25h8.33c.47 0 .86-.39.86-.86v-5.25c0-.48-.39-.86-.86-.86h-8.33z"/></g><g id="パス_1161"><path d="M1616.18 567.57h-8.32c-.63 0-1.13-.51-1.14-1.14v-5.25c0-.63.51-1.13 1.14-1.14h8.32c.63 0 1.14.51 1.14 1.14v5.25c-.01.63-.51 1.14-1.14 1.14zm-8.32-7.37c-.55 0-.99.44-.99.99v5.25c0 .55.44.99.99.99h8.32c.55 0 .99-.44.99-.99v-5.25c0-.55-.44-.99-.99-.99h-8.32z" fill="#6d7289"/><path class="st0" d="M1616.18 567.77h-8.32c-.74 0-1.33-.6-1.34-1.34v-5.25c0-.74.6-1.33 1.34-1.33h8.32c.74 0 1.33.6 1.34 1.33v5.25c-.01.74-.6 1.34-1.34 1.34zm-8.32-7.37c-.43 0-.79.35-.79.79v5.25c0 .43.35.79.79.79h8.32c.43 0 .79-.35.79-.79v-5.25c0-.43-.35-.79-.79-.79h-8.32z"/></g></g><g id="グループ_20160"><g id="パス_1162"><path class="st2" d="M1615.35 559.09h-10.69c-.53 0-.96.43-.97.96v5.51c0 .53.43.96.96.97h1.37l1.01 2.22.99-2.22h7.32c.53 0 .96-.43.97-.96v-5.51c.01-.54-.42-.97-.96-.97.01 0 .01 0 0 0z"/><path class="st0" d="M1607.04 569.23l-1.14-2.51h-1.23c-.32 0-.61-.12-.83-.34-.22-.22-.34-.51-.34-.82v-5.5c0-.32.12-.61.34-.83.22-.22.51-.34.82-.34h10.69c.31 0 .6.12.82.34.22.22.34.51.34.82v5.5c0 .32-.12.61-.34.83-.22.22-.51.34-.82.34h-7.19l-1.12 2.51zm-2.37-9.94c-.2 0-.39.08-.54.22-.15.14-.22.33-.23.54v5.5c0 .21.08.4.22.54s.33.22.54.22h1.5l.88 1.93.86-1.93h7.45c.2 0 .39-.08.54-.22.14-.14.22-.33.22-.54v-5.51c0-.2-.08-.4-.22-.54s-.34-.22-.54-.22v-.2.2h-10.68v.01z"/></g><g id="パス_1163"><path class="st1" d="M1607.04 568.81c-.03 0-.05-.02-.07-.04l-.99-2.18h-1.31c-.57 0-1.04-.46-1.04-1.04v-5.5c0-.57.47-1.04 1.04-1.04h10.69c.57 0 1.04.47 1.04 1.04v5.5c0 .57-.47 1.04-1.04 1.04h-7.28l-.97 2.18c-.02.02-.04.04-.07.04zm-2.37-9.65c-.49 0-.89.4-.89.89v5.5c0 .49.4.89.89.89h1.36c.03 0 .06.02.07.04l.94 2.07.93-2.07c.01-.03.04-.04.07-.04h7.32c.49 0 .89-.4.89-.89v-5.5c0-.49-.4-.89-.89-.89h-10.69z"/><path class="st0" d="M1607.04 569.05l-.02-.04h-.47l.21-.21-.91-2.01h-1.19c-.68 0-1.24-.56-1.24-1.24v-5.5c0-.68.56-1.24 1.24-1.24h10.69c.68 0 1.24.56 1.24 1.24v5.5c0 .68-.56 1.24-1.24 1.24h-7.15l-.81 1.82h.13l-.24.24c-.04.09-.13.16-.23.16l-.01.04zm-1-2.81c.1 0 .2.06.24.16l.76 1.67.74-1.67c.05-.1.14-.16.25-.16h7.32c.38 0 .69-.31.69-.69v-5.5c0-.38-.31-.69-.69-.69h-10.68c-.38 0-.69.31-.69.69v5.5c0 .38.31.69.69.69h1.37c-.01 0 0 0 0 0z"/></g></g><g id="グループ_20165"><g id="グループ_20161"><g id="楕円形_340"><circle class="st1" cx="1606.48" cy="562.89" r=".62"/><path class="st0" d="M1606.48 563.7c-.45 0-.81-.37-.81-.82s.37-.81.81-.81c.45 0 .82.37.82.81s-.37.82-.82.82zm0-1.23c-.23 0-.41.19-.41.41s.19.42.41.42c.23 0 .42-.19.42-.42s-.19-.41-.42-.41z"/></g></g><g id="グループ_20162"><g id="楕円形_341"><circle class="st1" cx="1608.94" cy="562.89" r=".62"/><path class="st0" d="M1608.94 563.7c-.45 0-.81-.37-.81-.82s.37-.81.81-.81c.45 0 .82.37.82.81s-.37.82-.82.82zm0-1.23c-.23 0-.41.19-.41.41s.19.42.41.42c.23 0 .42-.19.42-.42s-.19-.41-.42-.41z"/></g></g><g id="グループ_20163"><g id="楕円形_342"><circle class="st1" cx="1611.4" cy="562.89" r=".62"/><path class="st0" d="M1611.4 563.7c-.45 0-.81-.37-.81-.82s.37-.81.81-.81c.45 0 .82.37.82.81s-.37.82-.82.82zm0-1.23c-.23 0-.41.19-.41.41s.19.42.41.42c.23 0 .42-.19.42-.42s-.2-.41-.42-.41z"/></g></g><g id="グループ_20164"><g id="楕円形_343"><circle class="st1" cx="1613.86" cy="562.89" r=".62"/><path class="st0" d="M1613.86 563.7c-.45 0-.82-.37-.82-.82s.37-.81.82-.81c.45 0 .81.37.81.81s-.36.82-.81.82zm0-1.23c-.23 0-.42.19-.42.41s.19.42.42.42c.23 0 .41-.19.41-.42s-.18-.41-.41-.41z"/></g></g></g></g></svg>