<?xml version="1.0" encoding="utf-8"?>
<!-- Generator: Adobe Illustrator 24.0.0, SVG Export Plug-In . SVG Version: 6.00 Build 0)  -->
<svg version="1.1" id="レイヤー_1" xmlns="http://www.w3.org/2000/svg" xmlns:xlink="http://www.w3.org/1999/xlink" x="0px"
	 y="0px" viewBox="0 0 500 500" style="enable-background:new 0 0 500 500;" xml:space="preserve">
<g id="g20089" transform="translate(-1248.05 -496.798)">
	<path id="線_131" style="fill:#707070" d="M1259.7,507l0.2-0.3l2.5,1.9l-0.2,0.3L1259.7,507z"/>
	<g id="パス_1113">
		<path style="fill:#121B3D" d="M1262.3,508.9l-2.5-1.9l0.2-0.2l2.5,1.9L1262.3,508.9z"/>
		<path style="fill:#707070" d="M1259.5,507.1l0.4-0.5l2.9,2.1l-0.4,0.5L1259.5,507.1z"/>
	</g>
	<g id="パス_1114">
		<path style="fill:#FFFFFF" d="M1261.2,509.5l2.9,2.2c0.6,0.4,1.3,0.3,1.7-0.3s0.3-1.3-0.3-1.7l-2.9-2.2L1261.2,509.5z"/>
		<path style="fill:#707070" d="M1264.9,512.1c-0.3,0-0.6-0.1-0.8-0.3l-3.1-2.3l1.7-2.3l3.1,2.3c0.3,0.2,0.5,0.6,0.6,0.9
			c0.1,0.4,0,0.8-0.3,1.1C1265.7,511.9,1265.3,512.1,1264.9,512.1L1264.9,512.1z M1261.5,509.4l2.8,2c0.5,0.3,1.1,0.2,1.4-0.2
			c0.2-0.2,0.2-0.5,0.2-0.8s-0.2-0.5-0.4-0.7l-2.8-2L1261.5,509.4L1261.5,509.4z"/>
	</g>
	<g id="パス_1115">
		<path style="fill:#121B3D" d="M1264.9,512c-0.3,0-0.6-0.1-0.8-0.3l-2.9-2.2c0,0-0.1,0-0.1-0.1c0,0,0-0.1,0-0.1l1.5-2c0-0.1,0.1-0.1,0.2,0
			l2.9,2.2c0.6,0.5,0.7,1.3,0.3,1.9C1265.7,511.8,1265.3,512,1264.9,512 M1261.4,509.5l2.8,2.1c0.5,0.4,1.2,0.2,1.5-0.2
			c0.2-0.2,0.2-0.5,0.2-0.8s-0.2-0.5-0.4-0.7l-2.8-2.1L1261.4,509.5L1261.4,509.5z"/>
		<path style="fill:#707070" d="M1264.9,512.2c-0.3,0-0.7-0.1-0.9-0.3l-2.9-2.2c-0.1,0-0.1-0.1-0.1-0.2c0-0.1,0-0.2,0.1-0.2l1.5-2
			c0.1-0.1,0.1-0.1,0.2-0.1c0.1,0,0.2,0,0.2,0.1l2.9,2.2c0.3,0.2,0.6,0.6,0.6,1c0.1,0.4,0,0.8-0.3,1.2
			C1265.8,512,1265.4,512.2,1264.9,512.2L1264.9,512.2z M1264.9,512L1264.9,512L1264.9,512z M1261.7,509.4l2.7,2
			c0.2,0.1,0.4,0.2,0.7,0.2c0.2,0,0.4-0.2,0.6-0.4c0.1-0.2,0.2-0.4,0.2-0.7c0-0.2-0.2-0.5-0.4-0.6l-2.7-2L1261.7,509.4z"/>
	</g>
	<g id="パス_1116">
		<path style="fill:#E8E8E8" d="M1258.7,500.1c-2.1-1.6-5.1-1.1-6.7,1s-1.1,5.1,1,6.7s5.1,1.1,6.7-1C1261.3,504.7,1260.8,501.7,1258.7,500.1
			C1258.7,500.1,1258.7,500.1,1258.7,500.1z M1258.1,505.6c-0.9,1.2-2.6,1.4-3.7,0.6s-1.4-2.5-0.6-3.7c0.9-1.2,2.6-1.4,3.7-0.6
			C1258.7,502.8,1259,504.4,1258.1,505.6z"/>
		<path style="fill:#707070" d="M1255.8,509c-1,0-2.1-0.3-2.9-1c-1.1-0.8-1.8-2-2-3.3s0.1-2.6,0.9-3.7c1.6-2.2,4.8-2.7,7-1.1l0,0
			c2.2,1.6,2.7,4.8,1.1,7C1258.9,508.3,1257.4,509,1255.8,509L1255.8,509z M1255.9,499.4c-1.4,0-2.8,0.7-3.7,1.9
			c-0.7,1-1,2.2-0.8,3.4c0.2,1.2,0.8,2.3,1.8,3c2,1.5,4.9,1.1,6.4-1c1.5-2,1.1-4.9-1-6.4l0.1-0.2l-0.1,0.2
			C1257.8,499.7,1256.8,499.4,1255.9,499.4L1255.9,499.4z M1255.9,506.9c-0.6,0-1.2-0.2-1.7-0.6c-0.6-0.5-1-1.1-1.1-1.9
			s0.1-1.5,0.5-2.1c0.9-1.3,2.7-1.5,4-0.6c1.3,0.9,1.6,2.7,0.6,4l-0.2,0.4l0-0.1C1257.5,506.6,1256.7,506.9,1255.9,506.9
			L1255.9,506.9z M1255.9,501.6c-0.8,0-1.5,0.3-2,1c-0.4,0.5-0.6,1.2-0.5,1.8c0.1,0.7,0.4,1.2,1,1.6s1.2,0.6,1.8,0.5
			c0.7-0.1,1.2-0.5,1.6-1l0.1-0.1c0.7-1.1,0.5-2.6-0.6-3.4C1257,501.7,1256.5,501.6,1255.9,501.6L1255.9,501.6z"/>
	</g>
	<g id="パス_1117">
		<path style="fill:#121B3D" d="M1255.8,508.9c-2.7,0-4.9-2.2-4.9-4.9c0-2.7,2.2-4.9,4.9-4.9c2.7,0,4.9,2.2,4.9,4.9c0,1-0.3,2.1-1,2.9
			C1258.9,508.2,1257.4,508.9,1255.8,508.9 M1255.9,499.3c-2.6,0-4.7,2.1-4.7,4.6s2.1,4.7,4.6,4.7c2.6,0,4.7-2.1,4.7-4.6
			c0-1.5-0.7-2.9-1.9-3.8C1257.8,499.6,1256.8,499.3,1255.9,499.3"/>
		<path style="fill:#707070" d="M1255.9,509.1L1255.9,509.1c-2.8,0-5.1-2.3-5.1-5.1c0-2.8,2.3-5.1,5.1-5.1h0c2.8,0,5.1,2.3,5.1,5.1
			c0,1.1-0.3,2.2-1,3C1259,508.3,1257.5,509.1,1255.9,509.1z M1255.8,499.5c-1.2,0-2.3,0.5-3.1,1.3c-0.8,0.8-1.3,2-1.3,3.2
			s0.5,2.3,1.3,3.2c0.8,0.8,2,1.3,3.2,1.3h0c1.2,0,2.3-0.5,3.1-1.3c0.8-0.8,1.3-2,1.3-3.2c0-1.4-0.7-2.8-1.8-3.6
			C1257.7,499.8,1256.8,499.5,1255.8,499.5C1255.9,499.5,1255.8,499.5,1255.8,499.5L1255.8,499.5z"/>
	</g>
	<g id="パス_1118">
		<path style="fill:#121B3D" d="M1257.6,501.8c-1.2-0.9-3-0.7-3.9,0.6s-0.7,3,0.6,3.9c0.5,0.3,1.1,0.5,1.7,0.5c0.1,0,0.3,0,0.4,0
			c1.5-0.2,2.6-1.7,2.4-3.2C1258.6,502.9,1258.2,502.2,1257.6,501.8L1257.6,501.8z M1258,505.5c-0.8,1.1-2.4,1.4-3.6,0.5
			s-1.4-2.4-0.5-3.5s2.4-1.4,3.6-0.5c0.5,0.4,0.9,1,1,1.7C1258.6,504.3,1258.4,505,1258,505.5z"/>
		<path style="fill:#707070" d="M1255.9,507.1c-0.7,0-1.3-0.2-1.8-0.6c-1.3-1-1.6-2.9-0.6-4.2c0.5-0.7,1.2-1.1,2-1.2c0.8-0.1,1.6,0.1,2.2,0.5
			c0.7,0.5,1.1,1.2,1.2,2c0.2,1.6-0.9,3.2-2.5,3.4C1256.2,507,1256.1,507.1,1255.9,507.1L1255.9,507.1z M1255.9,501.7
			c-0.1,0-0.2,0-0.3,0c-0.6,0.1-1.2,0.4-1.5,0.9c-0.8,1-0.5,2.5,0.5,3.3c0.5,0.4,1.1,0.5,1.7,0.4s1.2-0.4,1.5-0.9
			c0.4-0.5,0.5-1.1,0.4-1.7c-0.1-0.6-0.4-1.2-0.9-1.5C1256.9,501.9,1256.4,501.7,1255.9,501.7L1255.9,501.7z M1257.6,501.8
			L1257.6,501.8L1257.6,501.8z"/>
	</g>
</g>

</svg>
