<?xml version="1.0" encoding="utf-8"?>
<!-- Generator: Adobe Illustrator 24.0.0, SVG Export Plug-In . SVG Version: 6.00 Build 0)  -->
<svg version="1.1" id="レイヤー_1" xmlns="http://www.w3.org/2000/svg" xmlns:xlink="http://www.w3.org/1999/xlink" x="0px"
	 y="0px" viewBox="0 0 500 500" style="enable-background:new 0 0 500 500;" xml:space="preserve">

<g id="g20089" transform="translate(-1248.05 -496.798)">
	<path id="線_131" style="fill:#707070" d="M1259.7,507l0.2-0.3l2.5,1.9l-0.2,0.3L1259.7,507z"/>
	<g id="パス_1113">
		<path style="fill:#121B3D" d="M1262.3,508.9l-2.5-1.9l0.2-0.2l2.5,1.9L1262.3,508.9z"/>
		<path style="fill:#707070" d="M1259.5,507.1l0.4-0.5l2.9,2.1l-0.4,0.5L1259.5,507.1z"/>
	</g>
	<g id="パス_1114">
		<path style="fill:#FFFFFF" d="M1261.2,509.5l2.9,2.2c0.6,0.4,1.3,0.3,1.7-0.3s0.3-1.3-0.3-1.7l-2.9-2.2L1261.2,509.5z"/>
		<path style="fill:#707070" d="M1264.9,512.1c-0.3,0-0.6-0.1-0.8-0.3l-3.1-2.3l1.7-2.3l3.1,2.3c0.3,0.2,0.5,0.6,0.6,0.9
			c0.1,0.4,0,0.8-0.3,1.1C1265.7,511.9,1265.3,512.1,1264.9,512.1L1264.9,512.1z M1261.5,509.4l2.8,2c0.5,0.3,1.1,0.2,1.4-0.2
			c0.2-0.2,0.2-0.5,0.2-0.8s-0.2-0.5-0.4-0.7l-2.8-2L1261.5,509.4L1261.5,509.4z"/>
	</g>
	<g id="パス_1115">
		<path style="fill:#121B3D" d="M1264.9,512c-0.3,0-0.6-0.1-0.8-0.3l-2.9-2.2c0,0-0.1,0-0.1-0.1c0,0,0-0.1,0-0.1l1.5-2c0-0.1,0.1-0.1,0.2,0
			l2.9,2.2c0.6,0.5,0.7,1.3,0.3,1.9C1265.7,511.8,1265.3,512,1264.9,512 M1261.4,509.5l2.8,2.1c0.5,0.4,1.2,0.2,1.5-0.2
			c0.2-0.2,0.2-0.5,0.2-0.8s-0.2-0.5-0.4-0.7l-2.8-2.1L1261.4,509.5L1261.4,509.5z"/>
		<path style="fill:#707070" d="M1264.9,512.2c-0.3,0-0.7-0.1-0.9-0.3l-2.9-2.2c-0.1,0-0.1-0.1-0.1-0.2c0-0.1,0-0.2,0.1-0.2l1.5-2
			c0.1-0.1,0.1-0.1,0.2-0.1c0.1,0,0.2,0,0.2,0.1l2.9,2.2c0.3,0.2,0.6,0.6,0.6,1c0.1,0.4,0,0.8-0.3,1.2
			C1265.8,512,1265.4,512.2,1264.9,512.2L1264.9,512.2z M1264.9,512L1264.9,512L1264.9,512z M1261.7,509.4l2.7,2
			c0.2,0.1,0.4,0.2,0.7,0.2c0.2,0,0.4-0.2,0.6-0.4c0.1-0.2,0.2-0.4,0.2-0.7c0-0.2-0.2-0.5-0.4-0.6l-2.7-2L1261.7,509.4z"/>
	</g>
	<g id="パス_1116">
		<path style="fill:#E8E8E8" d="M1258.7,500.1c-2.1-1.6-5.1-1.1-6.7,1s-1.1,5.1,1,6.7s5.1,1.1,6.7-1C1261.3,504.7,1260.8,501.7,1258.7,500.1
			C1258.7,500.1,1258.7,500.1,1258.7,500.1z M1258.1,505.6c-0.9,1.2-2.6,1.4-3.7,0.6s-1.4-2.5-0.6-3.7c0.9-1.2,2.6-1.4,3.7-0.6
			C1258.7,502.8,1259,504.4,1258.1,505.6z"/>
		<path style="fill:#707070" d="M1255.8,509c-1,0-2.1-0.3-2.9-1c-1.1-0.8-1.8-2-2-3.3s0.1-2.6,0.9-3.7c1.6-2.2,4.8-2.7,7-1.1l0,0
			c2.2,1.6,2.7,4.8,1.1,7C1258.9,508.3,1257.4,509,1255.8,509L1255.8,509z M1255.9,499.4c-1.4,0-2.8,0.7-3.7,1.9
			c-0.7,1-1,2.2-0.8,3.4c0.2,1.2,0.8,2.3,1.8,3c2,1.5,4.9,1.1,6.4-1c1.5-2,1.1-4.9-1-6.4l0.1-0.2l-0.1,0.2
			C1257.8,499.7,1256.8,499.4,1255.9,499.4L1255.9,499.4z M1255.9,506.9c-0.6,0-1.2-0.2-1.7-0.6c-0.6-0.5-1-1.1-1.1-1.9
			s0.1-1.5,0.5-2.1c0.9-1.3,2.7-1.5,4-0.6c1.3,0.9,1.6,2.7,0.6,4l-0.2,0.4l0-0.1C1257.5,506.6,1256.7,506.9,1255.9,506.9
			L1255.9,506.9z M1255.9,501.6c-0.8,0-1.5,0.3-2,1c-0.4,0.5-0.6,1.2-0.5,1.8c0.1,0.7,0.4,1.2,1,1.6s1.2,0.6,1.8,0.5
			c0.7-0.1,1.2-0.5,1.6-1l0.1-0.1c0.7-1.1,0.5-2.6-0.6-3.4C1257,501.7,1256.5,501.6,1255.9,501.6L1255.9,501.6z"/>
	</g>
	<g id="パス_1117">
		<path style="fill:#121B3D" d="M1255.8,508.9c-2.7,0-4.9-2.2-4.9-4.9c0-2.7,2.2-4.9,4.9-4.9c2.7,0,4.9,2.2,4.9,4.9c0,1-0.3,2.1-1,2.9
			C1258.9,508.2,1257.4,508.9,1255.8,508.9 M1255.9,499.3c-2.6,0-4.7,2.1-4.7,4.6s2.1,4.7,4.6,4.7c2.6,0,4.7-2.1,4.7-4.6
			c0-1.5-0.7-2.9-1.9-3.8C1257.8,499.6,1256.8,499.3,1255.9,499.3"/>
		<path style="fill:#707070" d="M1255.9,509.1L1255.9,509.1c-2.8,0-5.1-2.3-5.1-5.1c0-2.8,2.3-5.1,5.1-5.1h0c2.8,0,5.1,2.3,5.1,5.1
			c0,1.1-0.3,2.2-1,3C1259,508.3,1257.5,509.1,1255.9,509.1z M1255.8,499.5c-1.2,0-2.3,0.5-3.1,1.3c-0.8,0.8-1.3,2-1.3,3.2
			s0.5,2.3,1.3,3.2c0.8,0.8,2,1.3,3.2,1.3h0c1.2,0,2.3-0.5,3.1-1.3c0.8-0.8,1.3-2,1.3-3.2c0-1.4-0.7-2.8-1.8-3.6
			C1257.7,499.8,1256.8,499.5,1255.8,499.5C1255.9,499.5,1255.8,499.5,1255.8,499.5L1255.8,499.5z"/>
	</g>
	<g id="パス_1118">
		<path style="fill:#121B3D" d="M1257.6,501.8c-1.2-0.9-3-0.7-3.9,0.6s-0.7,3,0.6,3.9c0.5,0.3,1.1,0.5,1.7,0.5c0.1,0,0.3,0,0.4,0
			c1.5-0.2,2.6-1.7,2.4-3.2C1258.6,502.9,1258.2,502.2,1257.6,501.8L1257.6,501.8z M1258,505.5c-0.8,1.1-2.4,1.4-3.6,0.5
			s-1.4-2.4-0.5-3.5s2.4-1.4,3.6-0.5c0.5,0.4,0.9,1,1,1.7C1258.6,504.3,1258.4,505,1258,505.5z"/>
		<path style="fill:#707070" d="M1255.9,507.1c-0.7,0-1.3-0.2-1.8-0.6c-1.3-1-1.6-2.9-0.6-4.2c0.5-0.7,1.2-1.1,2-1.2c0.8-0.1,1.6,0.1,2.2,0.5
			c0.7,0.5,1.1,1.2,1.2,2c0.2,1.6-0.9,3.2-2.5,3.4C1256.2,507,1256.1,507.1,1255.9,507.1L1255.9,507.1z M1255.9,501.7
			c-0.1,0-0.2,0-0.3,0c-0.6,0.1-1.2,0.4-1.5,0.9c-0.8,1-0.5,2.5,0.5,3.3c0.5,0.4,1.1,0.5,1.7,0.4s1.2-0.4,1.5-0.9
			c0.4-0.5,0.5-1.1,0.4-1.7c-0.1-0.6-0.4-1.2-0.9-1.5C1256.9,501.9,1256.4,501.7,1255.9,501.7L1255.9,501.7z M1257.6,501.8
			L1257.6,501.8L1257.6,501.8z"/>
	</g>
</g>
<g id="グループ_20125" transform="translate(-1311.618 -491.68)">
	<g id="グループ_20123">
		<g id="グループ_20099">
			<g id="SVGID">
				<g id="楕円形_331">
					<circle style="fill:#FFFFFF" cx="1320.2" cy="528.8" r="7.3"/>
					<path style="fill:#707070" d="M1320.2,536.4c-4.2,0-7.5-3.4-7.5-7.5s3.4-7.5,7.5-7.5s7.5,3.4,7.5,7.5S1324.4,536.4,1320.2,536.4z
						 M1320.2,521.7c-3.9,0-7.1,3.2-7.1,7.1s3.2,7.1,7.1,7.1s7.1-3.2,7.1-7.1S1324.1,521.7,1320.2,521.7z"/>
				</g>
			</g>
		</g>
		<g id="グループ_20102">
			<g>
				<defs>
					<circle id="SVGID_2_" cx="1320.2" cy="528.8" r="7.3"/>
				</defs>
				<clipPath id="SVGID_3_">
					<use xlink:href="#SVGID_2_"  style="overflow:visible;"/>
				</clipPath>
				<g id="グループ_20101" class="st4">
					<g id="グループ_20100">
						<g id="パス_1119">
							<path class="st5" d="M1325.9,534l-5.4-5.4l-5.4,8.3l-5-5v-4.3l10.3,0.8"/>
							<path style="fill:#707070" d="M1315.1,537.2l-5.2-5.2v-4.6l10.6,0.8l0,0.1l0.1-0.1l5.6,5.6l-0.3,0.3l-5.2-5.2L1315.1,537.2z
								 M1310.2,531.8l4.8,4.8l5.2-8l-10-0.8V531.8z"/>
						</g>
						<g id="パス_1120">
							<path style="fill:#121B3D" d="M1315,536.9C1315,536.9,1315,536.9,1315,536.9l-5.1-5c0,0,0,0,0,0v-4.3c0,0,0,0,0-0.1s0,0,0.1,0
								l10.3,0.8c0,0,0.1,0,0.1,0.1s0,0.1-0.1,0.1h0l-10.3-0.8v4.2l4.9,4.9l5.4-8.2c0,0,0,0,0.1,0c0,0,0.1,0,0.1,0l5.4,5.4
								c0,0,0,0.1,0,0.1s-0.1,0-0.1,0l-5.3-5.3L1315,536.9C1315.1,536.9,1315.1,536.9,1315,536.9L1315,536.9z"/>
							<path style="fill:#707070" d="M1315,537.2L1315,537.2c-0.1,0-0.1-0.1-0.1-0.1l-5-5c-0.1,0-0.1-0.1-0.1-0.2v-4.3c0-0.1,0-0.2,0.1-0.2
								c0.1,0,0.1-0.1,0.2-0.1l10.3,0.8c0.1,0,0.2,0.1,0.3,0.3l5.4,5.4c0.1,0.1,0.1,0.3,0,0.4s-0.3,0.1-0.4,0l-5.2-5.2l-5.2,8
								c-0.1,0.1-0.1,0.1-0.2,0.1L1315,537.2L1315,537.2z M1310.3,531.8l4.7,4.7l5.1-7.8l-9.8-0.8V531.8z"/>
						</g>
					</g>
				</g>
			</g>
		</g>
		<g id="グループ_20105">
			<g>
				<defs>
					<circle id="SVGID_4_" cx="1320.2" cy="528.8" r="7.3"/>
				</defs>
				<clipPath id="SVGID_5_">
					<use xlink:href="#SVGID_4_"  style="overflow:visible;"/>
				</clipPath>
				<g id="グループ_20104" class="st6">
					<g id="グループ_20103">
						<g id="パス_1121">
							<path class="st5" d="M1320.5,528.6V521h-9.2l0.5,7.6H1320.5"/>
							<path style="fill:#707070" d="M1320.7,528.8h-9.1l-0.6-8h9.6L1320.7,528.8L1320.7,528.8z M1312,528.4h8.3v-7.2h-8.8L1312,528.4z"/>
						</g>
						<g id="パス_1122">
							<path style="fill:#121B3D" d="M1320.5,528.6h-8.7c0,0-0.1,0-0.1-0.1l-0.5-7.6c0,0,0,0,0-0.1s0,0,0.1,0h9.2c0,0,0.1,0,0.1,0.1
								L1320.5,528.6C1320.6,528.6,1320.5,528.6,1320.5,528.6z M1311.9,528.5h8.5v-7.4h-9.1L1311.9,528.5z"/>
							<path style="fill:#707070" d="M1320.5,528.8h-8.7c-0.2,0-0.3-0.1-0.3-0.3l-0.5-7.6c0-0.1,0-0.2,0.1-0.2s0.1-0.1,0.2-0.1h9.2
								c0.2,0,0.3,0.1,0.3,0.3v7.6c0,0.1,0,0.1-0.1,0.2C1320.6,528.8,1320.6,528.8,1320.5,528.8L1320.5,528.8z M1312.1,528.3h8.1v-7
								h-8.6L1312.1,528.3z"/>
						</g>
					</g>
				</g>
			</g>
		</g>
		<g id="グループ_20108">
			<g>
				<defs>
					<circle id="SVGID_6_" cx="1320.2" cy="528.8" r="7.3"/>
				</defs>
				<clipPath id="SVGID_7_">
					<use xlink:href="#SVGID_6_"  style="overflow:visible;"/>
				</clipPath>
				<g id="グループ_20107" class="st7">
					<g id="グループ_20106">
						<g id="パス_1123">
							<path class="st5" d="M1320.5,528.6l-6.5,4.9l4.6,4.1l1.9-1.4l0.2-7.3"/>
							<path style="fill:#707070" d="M1318.6,537.8l-4.9-4.4l6.7-5l0.2,0.3l-6.3,4.7l4.3,3.9l1.7-1.3l0.2-7.2l0.4,0l-0.2,7.4L1318.6,537.8z"
								/>
						</g>
						<g id="パス_1124">
							<path style="fill:#121B3D" d="M1318.6,537.7C1318.6,537.7,1318.6,537.6,1318.6,537.7l-4.7-4.2c0,0,0,0,0-0.1s0,0,0-0.1l6.5-4.9
								c0,0,0.1,0,0.1,0s0,0.1,0,0.1l-6.4,4.8l4.5,4l1.8-1.4l0.2-7.3c0,0,0-0.1,0.1-0.1s0.1,0,0.1,0.1l-0.2,7.3c0,0,0,0,0,0.1
								L1318.6,537.7C1318.6,537.6,1318.6,537.7,1318.6,537.7L1318.6,537.7z"/>
							<path style="fill:#707070" d="M1318.6,537.9c-0.1,0-0.1,0-0.2-0.1l-4.6-4.1c-0.1,0-0.1-0.1-0.1-0.2c0-0.1,0.1-0.2,0.1-0.2l6.5-4.9
								c0.1,0,0.1-0.1,0.2,0s0.1,0,0.2,0.1c0,0,0.1,0.1,0.1,0.2c0.1,0,0.1,0,0.1,0.1c0.1,0,0.1,0.1,0.1,0.2l-0.2,7.3
								c0,0.1,0,0.2-0.1,0.2l-2,1.5L1318.6,537.9L1318.6,537.9z M1314.4,533.5l4.2,3.8l1.6-1.2l0.2-7L1314.4,533.5z"/>
						</g>
					</g>
				</g>
			</g>
		</g>
		<g id="グループ_20111">
			<g>
				<defs>
					<circle id="SVGID_8_" cx="1320.2" cy="528.8" r="7.3"/>
				</defs>
				<clipPath id="SVGID_9_">
					<use xlink:href="#SVGID_8_"  style="overflow:visible;"/>
				</clipPath>
				<g id="グループ_20110" class="st8">
					<g id="グループ_20109">
						<g id="パス_1125">
							<path style="fill:#121B3D" d="M1325.9,533.5C1325.9,533.5,1325.9,533.5,1325.9,533.5l-5.7-5c0,0,0-0.1,0-0.1s0.1,0,0.1,0l5.7,5
								C1326,533.4,1326,533.5,1325.9,533.5C1325.9,533.5,1325.9,533.5,1325.9,533.5L1325.9,533.5z"/>
							<path style="fill:#707070" d="M1325.9,533.7c-0.1,0-0.1,0-0.2-0.1l-5.7-5c-0.1,0-0.1-0.1-0.1-0.2c0-0.1,0-0.1,0.1-0.2
								c0.1-0.1,0.3-0.1,0.4,0l5.7,5c0.1,0.1,0.1,0.3,0,0.4C1326.1,533.7,1326,533.7,1325.9,533.7L1325.9,533.7z"/>
						</g>
					</g>
				</g>
			</g>
		</g>
		<g id="グループ_20114">
			<g>
				<defs>
					<circle id="SVGID_10_" cx="1320.2" cy="528.8" r="7.3"/>
				</defs>
				<clipPath id="SVGID_11_">
					<use xlink:href="#SVGID_10_"  style="overflow:visible;"/>
				</clipPath>
				<g id="グループ_20113" class="st9">
					<g id="グループ_20112">
						<g id="パス_1126">
							<path class="st10" d="M1320.5,528.7l5.4-5L1320.5,528.7z"/>
							<path style="fill:#707070" d="M1320.4,528.6l5.4-5l0.3,0.3l-5.4,5L1320.4,528.6z"/>
						</g>
						<g id="パス_1127">
							<path style="fill:#121B3D" d="M1320.5,528.7C1320.5,528.7,1320.4,528.7,1320.5,528.7C1320.4,528.7,1320.4,528.7,1320.5,528.7
								c-0.1-0.1-0.1-0.1-0.1-0.1l5.4-5c0,0,0.1,0,0.1,0c0,0,0,0,0,0c0,0,0,0,0,0.1L1320.5,528.7
								C1320.5,528.7,1320.5,528.7,1320.5,528.7L1320.5,528.7z"/>
							<path style="fill:#707070" d="M1320.5,528.9c-0.1,0-0.2,0-0.2-0.1c0,0-0.1-0.1-0.1-0.2c0-0.1,0-0.2,0.1-0.2l5.4-5
								c0.1,0,0.1-0.1,0.2-0.1c0.1,0,0.1,0,0.2,0.1c0.1,0,0.1,0.1,0.1,0.2c0,0.1,0,0.2-0.1,0.2l-5.4,5
								C1320.6,528.9,1320.6,528.9,1320.5,528.9L1320.5,528.9z M1325.8,523.6C1325.8,523.6,1325.8,523.6,1325.8,523.6z"/>
						</g>
					</g>
				</g>
			</g>
		</g>
		<g id="グループ_20117">
			<g>
				<defs>
					<circle id="SVGID_12_" cx="1320.2" cy="528.8" r="7.3"/>
				</defs>
				<clipPath id="SVGID_13_">
					<use xlink:href="#SVGID_12_"  style="overflow:visible;"/>
				</clipPath>
				<g id="グループ_20116" class="st11">
					<g id="グループ_20115">
						<g id="長方形_16809">
							<path class="st5" d="M1320.5,528.6h11.9v9.2h-11.9V528.6z"/>
							<path style="fill:#707070" d="M1332.6,538h-12.3v-9.6h12.3V538z M1320.7,537.6h11.5v-8.8h-11.5V537.6z"/>
						</g>
						<g id="パス_1128">
							<path style="fill:#121B3D" d="M1332.4,537.9h-11.9c0,0-0.1,0-0.1-0.1v-9.2c0,0,0-0.1,0.1-0.1h11.9c0,0,0.1,0,0.1,0.1L1332.4,537.9
								C1332.5,537.8,1332.5,537.9,1332.4,537.9z M1320.6,537.7h11.8v-9.1h-11.8V537.7z"/>
							<path style="fill:#707070" d="M1332.4,538.1h-11.9c-0.2,0-0.3-0.1-0.3-0.3v-9.2c0-0.2,0.1-0.3,0.3-0.3h11.9c0.2,0,0.3,0.1,0.3,0.3v9.2
								C1332.7,537.9,1332.6,538.1,1332.4,538.1z M1320.8,537.5h11.4v-8.7h-11.4V537.5z"/>
						</g>
					</g>
				</g>
			</g>
		</g>
		<g id="グループ_20120">
			<g>
				<defs>
					<circle id="SVGID_14_" cx="1320.2" cy="528.8" r="7.3"/>
				</defs>
				<clipPath id="SVGID_15_">
					<use xlink:href="#SVGID_14_"  style="overflow:visible;"/>
				</clipPath>
				<g id="グループ_20119" class="st12">
					<g id="グループ_20118">
						<g id="パス_1129">
							<path style="fill:#121B3D" d="M1325.6,533.4C1325.6,533.4,1325.6,533.4,1325.6,533.4l-11-9.1c0,0-0.1-0.1,0-0.1s0.1,0,0.1,0l11,9.1
								C1325.8,533.2,1325.8,533.3,1325.6,533.4C1325.7,533.4,1325.7,533.4,1325.6,533.4z"/>
							<path style="fill:#707070" d="M1325.6,533.6c-0.1,0-0.1,0-0.2-0.1l-11-9.1c-0.1-0.1-0.1-0.3,0-0.4c0.1-0.1,0.3-0.1,0.4,0l11,9.1
								c0.1,0,0.1,0.1,0.1,0.2c0,0.1,0,0.2-0.1,0.2l0,0C1325.8,533.5,1325.7,533.6,1325.6,533.6L1325.6,533.6z"/>
						</g>
					</g>
				</g>
			</g>
		</g>
		<g id="グループ_20122">
			<g id="グループ_20121">
				<g id="パス_1130">
					<path style="fill:#121B3D" d="M1320.2,536.2c-4.1,0-7.4-3.3-7.4-7.4s3.3-7.4,7.4-7.4s7.4,3.3,7.4,7.4S1324.3,536.2,1320.2,536.2z
						 M1320.2,521.6c-4,0-7.2,3.2-7.2,7.2s3.2,7.2,7.2,7.2s7.2-3.2,7.2-7.2C1327.5,524.8,1324.2,521.6,1320.2,521.6z"/>
					<path style="fill:#707070" d="M1320.2,536.4c-4.2,0-7.6-3.4-7.6-7.6s3.4-7.6,7.6-7.6s7.6,3.4,7.6,7.6
						C1327.8,533,1324.4,536.4,1320.2,536.4z M1320.2,521.8c-3.9,0-7,3.2-7,7s3.2,7,7,7s7-3.2,7-7S1324.1,521.8,1320.2,521.8z"/>
				</g>
			</g>
		</g>
	</g>
	<g id="グループ_20124">
		<g id="パス_1131">
			<path class="st13" d="M1320.1,525.4c1.1,0,2.2,0.5,2.8,1.4c0.5,0.6,0.8,1.4,0.8,2.2c0,2-1.6,3.6-3.6,3.6c-2,0-3.6-1.6-3.6-3.6
				C1316.5,527,1318.1,525.4,1320.1,525.4z"/>
			<path style="fill:#121B3D" d="M1320.1,532.8c-1,0-1.9-0.4-2.7-1.1c-0.7-0.7-1.1-1.7-1.1-2.7c0-1,0.4-2,1.1-2.7c0.7-0.7,1.7-1.1,2.7-1.1
				c1.2,0,2.3,0.5,3,1.5c0.5,0.7,0.8,1.5,0.8,2.3c0,1-0.4,2-1.1,2.7C1322.1,532.4,1321.1,532.8,1320.1,532.8L1320.1,532.8
				L1320.1,532.8z M1320.1,525.6c-0.9,0-1.8,0.3-2.4,1c-0.6,0.6-1,1.5-1,2.4s0.4,1.8,1,2.4c0.6,0.6,1.5,1,2.4,1h0
				c0.9,0,1.8-0.3,2.4-1c0.6-0.6,1-1.5,1-2.4c0-0.8-0.2-1.5-0.7-2.1C1322.1,526.1,1321.1,525.7,1320.1,525.6L1320.1,525.6
				L1320.1,525.6z"/>
		</g>
	</g>
</g>
<g id="グループ_20136" transform="translate(-1457.8 -495.614)">
	<g id="グループ_20134" transform="translate(1458 495.814)">
		<g id="グループ_20128">
			<g id="グループ_20126">
				<g id="パス_1132">
					<path class="st14" d="M7,64.6l-0.6-1.5H1.5v10.9h12.1l0.4-6.8l0.2-2.6C14.2,64.6,7,64.6,7,64.6z"/>
					<path style="fill:#707070" d="M13.8,74.1H1.3V62.9h5.2l0.6,1.5h7.2l-0.2,2.8C14.2,67.2,13.8,74.1,13.8,74.1z M1.7,73.7h11.7l0.4-6.6
						l0.2-2.4H6.9l-0.6-1.5H1.7L1.7,73.7L1.7,73.7z"/>
				</g>
				<g id="パス_1133">
					<path class="st15" d="M13.6,74H1.5c0,0-0.1,0-0.1-0.1V63.1c0,0,0-0.1,0.1-0.1h4.9c0,0,0.1,0,0.1,0.1L7,64.5h7.1c0,0,0,0,0.1,0
						c0,0,0,0,0,0.1L14,67.1L13.6,74C13.7,74,13.6,74,13.6,74L13.6,74z M1.6,73.8h12l0.4-6.7l0.2-2.5H7c0,0-0.1,0-0.1-0.1l-0.6-1.5
						H1.6L1.6,73.8L1.6,73.8z"/>
					<path style="fill:#707070" d="M1.5,74.2c-0.1,0-0.1,0-0.2-0.1c-0.1-0.1-0.1-0.1-0.1-0.2V63.1c0-0.1,0-0.1,0.1-0.2
						c0.1-0.1,0.1-0.1,0.2-0.1h4.9c0.1,0,0.2,0.1,0.3,0.2l0.5,1.3h7c0.1,0,0.2,0,0.2,0.1c0.1,0.1,0.1,0.1,0.1,0.2l-0.2,2.6l-0.4,6.8
						c0,0.1-0.1,0.3-0.3,0.3L1.5,74.2C1.5,74.2,1.5,74.2,1.5,74.2z M1.8,73.6h11.6l0.3-6.5l0.2-2.3H7c-0.1,0-0.2-0.1-0.2-0.2
						l-0.5-1.3H1.8V73.6L1.8,73.6z"/>
				</g>
			</g>
			<g id="グループ_20127" transform="translate(.77 2.635)">
				<g id="パス_1134">
					<path class="st14" d="M3.7,63.1h12L13,71.3H1.5C1.5,71.3,3.7,63.1,3.7,63.1z"/>
					<path style="fill:#707070" d="M13.1,71.5H1.2l2.3-8.6H16L13.1,71.5z M1.7,71.1h11.1l2.6-7.8H3.8C3.8,63.3,1.7,71.1,1.7,71.1z"/>
				</g>
				<g id="パス_1135">
					<path class="st15" d="M13,71.4H1.5c0,0-0.1,0-0.1,0c0,0,0,0,0-0.1L3.6,63c0,0,0-0.1,0.1-0.1h12c0,0,0.1,0,0.1,0c0,0,0,0,0,0.1
						L13,71.4C13,71.3,13,71.4,13,71.4L13,71.4z M1.6,71.2h11.3l2.7-8.1H3.7L1.6,71.2L1.6,71.2z"/>
					<path style="fill:#707070" d="M13,71.6H1.5c-0.1,0-0.2,0-0.2-0.1c-0.1-0.1-0.1-0.2-0.1-0.2L3.4,63c0-0.1,0.1-0.2,0.3-0.2h12
						c0.1,0,0.2,0,0.2,0.1C16,63,16,63.1,16,63.1l-2.7,8.2C13.2,71.5,13.1,71.6,13,71.6z M1.8,71h10.9l2.6-7.7H3.9
						C3.9,63.3,1.8,71,1.8,71z"/>
				</g>
			</g>
		</g>
		<g id="グループ_20133" transform="translate(7.642 1.032)">
			<g id="グループ_20129" transform="translate(0 3.662)">
				<g id="パス_1136">
					<path style="fill:#FFFFFF" d="M9.6,69.2c0-0.3,0.1-0.5,0.1-0.8c0-3-1.8-5.4-4.1-5.4s-4.1,2.4-4.1,5.4c0,0.3,0,0.5,0.1,0.8
						C1.5,69.2,9.6,69.2,9.6,69.2z"/>
					<path style="fill:#707070" d="M9.8,69.4H1.3l0-0.2c0-0.3-0.1-0.5-0.1-0.8c0-3.1,1.9-5.6,4.3-5.6s4.3,2.5,4.3,5.6c0,0.3,0,0.5-0.1,0.8
						C9.8,69.2,9.8,69.4,9.8,69.4z M1.7,69h7.8c0-0.2,0-0.4,0-0.6c0-2.9-1.7-5.2-3.9-5.2c-2.2,0-3.9,2.3-3.9,5.2
						C1.7,68.5,1.7,69,1.7,69z"/>
				</g>
				<g id="パス_1137">
					<path class="st15" d="M9.6,69.3H1.5c0,0-0.1,0-0.1-0.1c0-0.3-0.1-0.5-0.1-0.8c0-3,1.9-5.5,4.2-5.5s4.2,2.4,4.2,5.5
						C9.8,68.7,9.7,69,9.6,69.3C9.7,69.3,9.7,69.3,9.6,69.3z M1.6,69.2h8c0-0.2,0-0.5,0-0.7c0-2.9-1.8-5.3-4-5.3s-4,2.4-4,5.3
						C1.6,68.7,1.6,68.9,1.6,69.2z"/>
					<path style="fill:#707070" d="M9.6,69.5H1.5c-0.1,0-0.3-0.1-0.3-0.2c0-0.3-0.1-0.5-0.1-0.8c0-3.1,2-5.7,4.4-5.7s4.4,2.5,4.4,5.7
						c0,0.3,0,0.5-0.1,0.8C9.9,69.4,9.8,69.5,9.6,69.5z M1.8,69h7.6c0-0.2,0-0.3,0-0.5c0-2.8-1.7-5.1-3.8-5.1s-3.8,2.3-3.8,5.1
						C1.8,68.6,1.8,68.8,1.8,69z"/>
				</g>
			</g>
			<g id="グループ_20130" transform="translate(1.296 6.764)">
				<g id="パス_1138">
					<path style="fill:#FFFFFF" d="M1.5,66.1c0,0,0.2-2.6,0.8-3.1"/>
					<path style="fill:#707070" d="M1.7,66.1l-0.4,0c0-0.3,0.3-2.7,0.8-3.2l0.3,0.3C2,63.5,1.8,65.2,1.7,66.1L1.7,66.1z"/>
				</g>
				<g id="パス_1139">
					<path class="st15" d="M1.6,66.1l-0.2,0c0-0.1,0.2-2.6,0.8-3.1l0.1,0.1C1.8,63.6,1.6,66.1,1.6,66.1z"/>
					<path style="fill:#707070" d="M1.7,66.4l-0.5-0.1l0-0.2c0-0.4,0.3-2.7,0.8-3.2l0.1-0.1l0.4,0.4l-0.1,0.1c-0.3,0.4-0.6,2.3-0.7,2.9
						L1.7,66.4L1.7,66.4z"/>
				</g>
			</g>
			<g id="グループ_20131" transform="translate(6.175 6.771)">
				<g id="パス_1140">
					<path style="fill:#FFFFFF" d="M1.5,63C2,64,2.4,65,2.4,66.1"/>
					<path style="fill:#707070" d="M2.2,66.1c0-1.1-0.3-2.1-0.9-3l0.3-0.2c0.6,1,0.9,2.1,0.9,3.2L2.2,66.1L2.2,66.1z"/>
				</g>
				<g id="パス_1141">
					<path class="st15" d="M2.3,66.1c0-1.1-0.3-2.1-0.9-3L1.5,63c0.6,0.9,0.9,2,0.9,3.1L2.3,66.1z"/>
					<path style="fill:#707070" d="M2.1,66.3v-0.2c0-1-0.3-2.1-0.9-2.9L1.1,63l0.4-0.3l0.1,0.2c0.6,1,0.9,2.1,0.9,3.2v0.2L2.1,66.3z"/>
				</g>
			</g>
			<g id="グループ_20132" transform="translate(2.054)">
				<g id="楕円形_339">
					<circle style="fill:#FFFFFF" cx="3.5" cy="65.1" r="2.1"/>
					<path style="fill:#707070" d="M3.5,67.4c-1.2,0-2.2-1-2.2-2.2s1-2.2,2.2-2.2s2.3,1,2.3,2.2S4.8,67.4,3.5,67.4z M3.5,63.3
						c-1,0-1.8,0.8-1.8,1.9S2.5,67,3.5,67s1.8-0.8,1.8-1.9S4.6,63.3,3.5,63.3z"/>
				</g>
				<g id="パス_1142">
					<path class="st15" d="M3.5,67.2c-1.2,0-2.1-0.9-2.1-2.1S2.4,63,3.5,63c1.2,0,2.1,0.9,2.1,2.1S4.7,67.2,3.5,67.2z M3.5,63.1
						c-1.1,0-2,0.9-2,2s0.9,2,2,2s2-0.9,2-2S4.6,63.1,3.5,63.1z"/>
					<path style="fill:#707070" d="M3.5,67.4c-1.3,0-2.3-1-2.3-2.3s1-2.3,2.3-2.3c1.3,0,2.3,1,2.3,2.3S4.8,67.4,3.5,67.4z M3.5,63.3
						c-1,0-1.8,0.8-1.8,1.8s0.8,1.8,1.8,1.8s1.8-0.8,1.8-1.8S4.5,63.3,3.5,63.3z"/>
				</g>
			</g>
		</g>
	</g>
	<g id="グループ_20135" transform="translate(1461.481 499.673)">
		<g id="長方形_16810">
			<path style="fill:#FFFFFF" d="M3.6,63.2l0.3,0.1c0.4,0.1,0.6,0.5,0.5,0.9l-1.1,3.7c-0.1,0.4-0.5,0.6-0.9,0.5l-0.3-0.1
				c-0.4-0.1-0.6-0.5-0.5-0.9l1.1-3.7C2.8,63.3,3.2,63.1,3.6,63.2z"/>
			<path style="fill:#707070" d="M2.6,68.6c-0.1,0-0.2,0-0.3,0l-0.3-0.1c-0.2-0.1-0.4-0.2-0.6-0.4c-0.1-0.2-0.2-0.5-0.1-0.7l1.1-3.7
				c0.1-0.5,0.7-0.8,1.2-0.6l0.3,0.1c0.5,0.1,0.8,0.7,0.6,1.2L3.5,68c-0.1,0.2-0.2,0.4-0.4,0.6C2.9,68.6,2.8,68.6,2.6,68.6z
				 M3.4,63.4c-0.2,0-0.4,0.1-0.5,0.4l-1.1,3.7c0,0.1,0,0.3,0.1,0.4s0.2,0.2,0.3,0.3l0.3,0.1c0.1,0,0.3,0,0.4-0.1
				C3,68.1,3.1,68,3.1,67.9l1.1-3.7c0.1-0.3-0.1-0.6-0.4-0.7l-0.3-0.1C3.5,63.4,3.4,63.4,3.4,63.4L3.4,63.4z"/>
		</g>
		<g id="パス_1143">
			<path class="st15" d="M2.7,68.6c-0.1,0-0.1,0-0.2,0l-0.6-0.2c-0.3-0.1-0.5-0.5-0.4-0.8l1.2-4c0.1-0.3,0.5-0.5,0.8-0.4L4,63.3
				c0.3,0.1,0.5,0.5,0.4,0.8l-1.2,4C3.3,68.4,3,68.6,2.7,68.6z M2.6,68.4c0.3,0.1,0.6-0.1,0.6-0.4l1.2-4c0.1-0.3-0.1-0.6-0.3-0.6
				l-0.6-0.2c-0.3-0.1-0.6,0.1-0.6,0.4l-1.2,4c-0.1,0.3,0.1,0.6,0.3,0.6L2.6,68.4L2.6,68.4z"/>
			<path style="fill:#707070" d="M2.7,68.8c-0.1,0-0.2,0-0.2,0l-0.6-0.2c-0.4-0.1-0.7-0.6-0.6-1.1l1.2-4c0.1-0.4,0.6-0.7,1.1-0.6l0.6,0.2
				c0.4,0.1,0.7,0.6,0.6,1.1l-1.2,4C3.4,68.5,3.1,68.8,2.7,68.8z M2.6,68.2C2.8,68.3,3,68.2,3,68l1.2-4c0.1-0.2-0.1-0.3-0.2-0.4
				l-0.6-0.2c-0.1,0-0.2,0-0.2,0S3,63.5,3,63.6l-1.2,4c0,0.1,0,0.2,0,0.2C1.9,67.9,2,68,2,68l0.1,0L2.6,68.2L2.6,68.2z"/>
		</g>
	</g>
</g>
<g id="グループ_20151" transform="translate(-1413.162 -494.203)">
	<g id="グループ_20148" transform="translate(1413.362 494.403)">
		<g id="グループ_20143" transform="translate(0 1.792)">
			<g id="グループ_20137" transform="translate(.125 .125)">
				<g id="SVGID_1_">
					<path id="パス_1144" style="fill:#707070" d="M4.6,109.8c-0.8,0-1.4-0.6-1.4-1.4V97.5c0-0.8,0.7-1.4,1.4-1.4h10.2c0.4,0,0.8,0.1,1,0.4
						c0.3,0.3,0.4,0.6,0.4,1v10.9c0,0.4-0.2,0.8-0.4,1c-0.3,0.3-0.6,0.4-1,0.4l0-0.2v0.2L4.6,109.8L4.6,109.8L4.6,109.8z M4.6,96.4
						c-0.6,0-1.1,0.5-1.1,1v10.9c0,0.3,0.1,0.6,0.3,0.7c0.2,0.2,0.5,0.3,0.7,0.3h10.3c0.6,0,1-0.5,1.1-1V97.5c0-0.3-0.1-0.6-0.3-0.7
						s-0.5-0.3-0.7-0.3H4.6C4.6,96.4,4.6,96.4,4.6,96.4z"/>
				</g>
			</g>
			<g id="グループ_20140" transform="translate(.125 .125)">
				<g>
					<defs>
						<path id="SVGID_16_" d="M14.8,109.6H4.6c-0.7,0-1.2-0.6-1.3-1.2V97.5c0-0.7,0.6-1.2,1.2-1.2h10.2c0.7,0,1.3,0.6,1.3,1.2v10.9
							C16.1,109.1,15.5,109.6,14.8,109.6z"/>
					</defs>
					<clipPath id="SVGID_17_">
						<use xlink:href="#SVGID_16_"  style="overflow:visible;"/>
					</clipPath>
					<g id="グループ_20139" class="st16">
						<g id="グループ_20138" transform="translate(-5.092 -3.178)">
							<g id="長方形_16811">
								<path class="st5" d="M3.4,96.4h21.9v6H3.4L3.4,96.4z"/>
								<path style="fill:#707070" d="M25.5,102.6H3.2v-6.4h22.3V102.6z M3.6,102.2h21.5v-5.6H3.6C3.6,96.6,3.6,102.2,3.6,102.2z"/>
							</g>
							<g id="パス_1145">
								<path style="fill:#121B3D" d="M25.3,102.5H3.4c-0.1,0-0.1-0.1-0.1-0.1v-6c0-0.1,0.1-0.1,0.1-0.1h21.9c0.1,0,0.1,0.1,0.1,0.1v6
									C25.4,102.4,25.4,102.5,25.3,102.5z M3.6,102.2h21.6v-5.8H3.6C3.6,96.5,3.6,102.2,3.6,102.2z"/>
								<path style="fill:#707070" d="M3.4,102.7c-0.1,0-0.2,0-0.2-0.1s-0.1-0.1-0.1-0.2v-6c0-0.2,0.2-0.3,0.3-0.3h21.9
									c0.2,0,0.3,0.1,0.3,0.3v6c0,0.2-0.1,0.3-0.3,0.3L3.4,102.7L3.4,102.7L3.4,102.7z M3.8,102H25v-5.4H3.8V102z"/>
							</g>
						</g>
					</g>
				</g>
			</g>
			<g id="グループ_20142">
				<g id="グループ_20141">
					<g id="パス_1147">
						<path style="fill:#121B3D" d="M14.9,109.9H4.7c-0.8,0-1.4-0.6-1.4-1.4V97.6c0-0.8,0.6-1.4,1.4-1.4h10.2c0.8,0,1.4,0.6,1.4,1.4v10.9
							c0,0.4-0.1,0.7-0.4,1C15.7,109.7,15.3,109.9,14.9,109.9L14.9,109.9z M4.7,96.5c-0.6,0-1.1,0.5-1.1,1.1v10.9
							c0,0.6,0.5,1.1,1.1,1.1h10.2c0.3,0,0.6-0.1,0.8-0.3c0.2-0.2,0.3-0.5,0.3-0.8V97.6c0-0.6-0.5-1.1-1.1-1.1
							C14.9,96.5,4.7,96.5,4.7,96.5z"/>
						<path style="fill:#707070" d="M14.9,110.1H4.7h0c-0.9,0-1.6-0.7-1.6-1.6V97.6c0-0.9,0.7-1.6,1.6-1.6h10.2c0.9,0,1.6,0.7,1.6,1.6v10.9
							c0,0.4-0.2,0.8-0.4,1.1C15.8,109.9,15.3,110.1,14.9,110.1z M4.7,109.4h10.2c0.2,0,0.5-0.1,0.7-0.3c0.2-0.2,0.3-0.4,0.3-0.6
							V97.6c0-0.5-0.4-0.9-0.9-0.9H4.7c-0.5,0-0.9,0.4-0.9,0.9v10.9C3.8,109,4.2,109.4,4.7,109.4L4.7,109.4z"/>
					</g>
				</g>
			</g>
		</g>
		<g id="グループ_20144" transform="translate(3.58)">
			<g id="パス_1148">
				<path style="fill:#121B3D" d="M3.4,99.5c-0.1,0-0.1-0.1-0.1-0.1v-3.1c0-0.1,0.1-0.1,0.1-0.1s0.1,0.1,0.1,0.1v3.1
					C3.6,99.5,3.5,99.5,3.4,99.5z"/>
				<path style="fill:#707070" d="M3.4,99.7c-0.2,0-0.3-0.1-0.3-0.3v-3.1c0-0.2,0.2-0.3,0.3-0.3s0.3,0.1,0.3,0.3v3.1
					C3.8,99.6,3.6,99.7,3.4,99.7z"/>
			</g>
		</g>
		<g id="グループ_20145" transform="translate(6.767)">
			<g id="パス_1149">
				<path style="fill:#121B3D" d="M3.4,99.5c-0.1,0-0.1-0.1-0.1-0.1v-3.1c0-0.1,0.1-0.1,0.1-0.1s0.1,0.1,0.1,0.1v3.1
					C3.6,99.5,3.5,99.5,3.4,99.5z"/>
				<path style="fill:#707070" d="M3.4,99.7c-0.2,0-0.3-0.1-0.3-0.3v-3.1c0-0.2,0.2-0.3,0.3-0.3s0.3,0.1,0.3,0.3v3.1
					C3.8,99.6,3.6,99.7,3.4,99.7z"/>
			</g>
		</g>
		<g id="グループ_20146" transform="translate(9.965)">
			<g id="パス_1150">
				<path style="fill:#121B3D" d="M3.4,99.5c-0.1,0-0.1-0.1-0.1-0.1v-3.1c0-0.1,0.1-0.1,0.1-0.1s0.1,0.1,0.1,0.1v3.1
					C3.6,99.5,3.5,99.5,3.4,99.5z"/>
				<path style="fill:#707070" d="M3.4,99.7c-0.2,0-0.3-0.1-0.3-0.3v-3.1c0-0.2,0.2-0.3,0.3-0.3s0.3,0.1,0.3,0.3v3.1
					C3.8,99.6,3.6,99.7,3.4,99.7z"/>
			</g>
		</g>
	</g>
	<g id="グループ_20150" transform="translate(1417.795 501.267)">
		<g id="グループ_20149">
			<g id="パス_1152">
				<path class="st17" d="M6.6,102.2H5.9v-1.7H3.3v-0.4l2.6-3.9h0.7v3.8h0.8v0.5H6.6V102.2L6.6,102.2z M4,100h1.9v-2.1
					c0-0.3,0-0.6,0-1h0c-0.2,0.4-0.3,0.6-0.5,0.9L4,100L4,100L4,100z"/>
				<path style="fill:#707070" d="M6.8,102.4h-1v-1.7H3.1v-0.7l0-0.1l2.6-4h1v3.8h0.8v0.9H6.8V102.4L6.8,102.4z M6.1,102h0.2v-1.7h0.8v-0.1
					H6.4v-3.8H6l-2.5,3.8v0.2h2.6L6.1,102L6.1,102z M6.1,100.2H3.8v-0.3l1.6-2.4c0.1-0.2,0.2-0.4,0.3-0.7l0.1-0.1h0.3l0,0.2l0,0.3
					c0,0.2,0,0.4,0,0.6L6.1,100.2L6.1,100.2z M4.4,99.8h1.4v-1.9v-0.2l-0.1,0.2L4.4,99.8z"/>
			</g>
		</g>
	</g>
</g>
<g id="グループ_20157" transform="translate(-1359.407 -494.304)">
	<g id="グループ_20152" transform="translate(1361.607 494.504)">
		<g id="パス_1153">
			<path style="fill:#121B3D" d="M14.8,136H0c-0.1,0-0.1-0.1-0.1-0.1v-8.7c0-0.1,0.1-0.1,0.1-0.1h14.7c0.1,0,0.1,0.1,0.1,0.1v8.7
				C14.9,136,14.8,136,14.8,136z M0.2,135.8h14.5v-8.5H0.2V135.8z"/>
			<path style="fill:#707070" d="M0,136.2c-0.1,0-0.2,0-0.2-0.1s-0.1-0.1-0.1-0.2v-8.8c0-0.1,0-0.2,0.1-0.2s0.2-0.1,0.2-0.1h14.7
				c0.2,0,0.3,0.1,0.3,0.3v8.8c0,0.2-0.2,0.3-0.3,0.3L0,136.2L0,136.2z M0.4,135.6h14.1v-8.1H0.4V135.6z"/>
		</g>
	</g>
	<g id="グループ_20153" transform="translate(1361.608 494.504)">
		<g id="パス_1154">
			<path style="fill:#121B3D" d="M7.5,133.7C7.4,133.7,7.4,133.7,7.5,133.7l-7.5-6.5c0,0-0.1-0.1,0-0.1c0-0.1,0.1-0.1,0.1-0.1h14.7
				c0.1,0,0.1,0,0.1,0.1c0,0.1,0,0.1,0,0.1l-7.3,6.4C7.5,133.7,7.5,133.7,7.5,133.7z M0.4,127.3l7.1,6.1l6.9-6.1H0.4z"/>
			<path style="fill:#707070" d="M7.5,133.9c-0.1,0-0.2,0-0.2-0.1l-7.4-6.4c-0.1-0.1-0.1-0.2-0.1-0.4c0.1-0.1,0.2-0.2,0.3-0.2h14.7
				c0.1,0,0.2,0.1,0.3,0.2c0.1,0.1,0,0.3-0.1,0.4l-7.3,6.4C7.6,133.9,7.6,133.9,7.5,133.9L7.5,133.9z M0.9,127.5l6.6,5.7l6.4-5.7
				C13.9,127.5,0.9,127.5,0.9,127.5z"/>
		</g>
	</g>
	<g id="グループ_20155" transform="translate(1361.647 498.911)">
		<g id="パス_1156">
			<path style="fill:#121B3D" d="M0.1,131.6l-0.2-0.2l4.7-4.4l0.2,0.2L0.1,131.6z"/>
			<path style="fill:#707070" d="M0,131.9l-0.4-0.5l5-4.7l0.4,0.5L0,131.9z"/>
		</g>
	</g>
	<g id="グループ_20156" transform="translate(1371.943 498.913)">
		<g id="パス_1157">
			<path style="fill:#121B3D" d="M4.3,131.6l-4.4-4.4l0.2-0.2l4.4,4.4L4.3,131.6z"/>
			<path style="fill:#707070" d="M-0.4,127.2l0.5-0.5l4.7,4.7l-0.5,0.5L-0.4,127.2z"/>
		</g>
	</g>
</g>
<g id="グループ_20158" transform="translate(-1204.537 -411.884)">
	<g id="パス_1158">
		<path style="fill:#FFFFFF" d="M1220.6,568.6v-1.8h-1.7c-0.1-0.7-0.3-1.3-0.7-1.9l1.2-1.1l-1.2-1.3l-1.3,1.1c-0.5-0.4-1.1-0.6-1.7-0.8v-1.7
			h-1.8v1.6c-0.6,0.1-1.3,0.4-1.8,0.7l-1.1-1.1l-1.3,1.3l1.1,1.1c-0.4,0.6-0.7,1.2-0.8,1.9h-1.7v1.8h1.8c0.1,0.5,0.4,1.1,0.7,1.5
			l-1.1,1.1l1.3,1.3l1.1-1.1c0.5,0.3,1.1,0.6,1.7,0.7v1.9h1.8v-1.9c0.6-0.1,1.2-0.3,1.7-0.7l1.3,1.2l1.2-1.4l-1.2-1.1
			c0.3-0.5,0.6-1,0.8-1.6L1220.6,568.6L1220.6,568.6L1220.6,568.6z M1214,569.7c-1.3,0-2.3-1-2.3-2.3c0-1.3,1.1-2.3,2.3-2.3
			c1.3,0,2.3,1,2.3,2.3C1216.4,568.7,1215.3,569.7,1214,569.7z"/>
		<path style="fill:#707070" d="M1215.2,574.2h-2.2v-2c-0.5-0.1-1-0.3-1.4-0.6l-1.1,1.1l-1.6-1.6l1.1-1.1c-0.2-0.4-0.4-0.8-0.6-1.3h-1.8v-2.2
			h1.7c0.1-0.6,0.3-1.2,0.7-1.7l-1.1-1.1l1.6-1.6l1.1,1.1c0.5-0.3,1-0.5,1.6-0.6V561h2.2v1.7c0.5,0.1,1.1,0.3,1.5,0.7l1.3-1.2
			l1.5,1.7l-1.2,1.1c0.3,0.5,0.5,1,0.6,1.6h1.8v2.2h-1.8c-0.1,0.5-0.4,1-0.7,1.4l1.2,1.1l-1.5,1.7l-1.4-1.2
			c-0.5,0.3-0.9,0.5-1.5,0.6L1215.2,574.2L1215.2,574.2z M1213.3,573.8h1.4V572l0.2,0c0.6-0.1,1.1-0.3,1.6-0.6l0.1-0.1l1.3,1.2
			l0.9-1.1l-1.2-1.1l0.1-0.2c0.3-0.5,0.6-1,0.7-1.6l0-0.2h1.8v-1.5h-1.7l0-0.2c-0.1-0.6-0.3-1.2-0.7-1.8l-0.1-0.1l1.2-1.1l-0.9-1
			l-1.2,1.1l-0.1-0.1c-0.5-0.3-1.1-0.6-1.7-0.7l-0.2,0v-1.6h-1.4v1.6l-0.2,0c-0.6,0.1-1.2,0.3-1.7,0.7l-0.1,0.1l-1.1-1.1l-1,1
			l1.1,1.1l-0.1,0.1c-0.4,0.5-0.6,1.2-0.7,1.9l0,0.2h-1.7v1.4h1.8l0,0.2c0.1,0.5,0.3,1,0.7,1.5l0.1,0.1l-1.1,1.1l1,1l1.1-1.1
			l0.1,0.1c0.5,0.3,1,0.5,1.6,0.7l0.2,0L1213.3,573.8L1213.3,573.8z M1214,569.9c-1.4,0-2.5-1.1-2.5-2.5c0-1.4,1.1-2.5,2.5-2.5h0
			c1.4,0,2.5,1.1,2.5,2.5S1215.4,569.9,1214,569.9L1214,569.9z M1214,569.5c1.2,0,2.1-1,2.1-2.1c0-1.2-0.9-2.1-2.1-2.1
			s-2.1,1-2.1,2.1C1211.9,568.6,1212.9,569.5,1214,569.5z"/>
	</g>
	<g id="パス_1159">
		<path style="fill:#121B3D" d="M1215,574.1h-1.8c-0.1,0-0.1,0-0.1-0.1v-1.8c-0.6-0.1-1.1-0.3-1.6-0.7l-1.1,1c0,0-0.1,0-0.1,0l-1.3-1.3
			c0,0,0-0.1,0-0.1l1.1-1c-0.3-0.4-0.5-0.9-0.6-1.4h-1.7c-0.1,0-0.1,0-0.1-0.1v-1.8c0,0,0-0.1,0.1-0.1h1.6c0.1-0.7,0.3-1.3,0.7-1.8
			l-1.1-1c0,0,0-0.1,0-0.1l1.3-1.3c0,0,0.1,0,0.1,0l1.1,1c0.5-0.3,1.1-0.6,1.7-0.7v-1.6c0,0,0-0.1,0.1-0.1h1.8c0.1,0,0.1,0,0.1,0.1
			v1.6c0.6,0.1,1.1,0.4,1.6,0.7l1.2-1.1c0,0,0,0,0.1,0s0,0,0.1,0l1.2,1.3c0,0,0,0,0,0.1s0,0,0,0.1l-1.2,1c0.3,0.5,0.6,1.1,0.7,1.8
			h1.7c0.1,0,0.1,0,0.1,0.1v1.8c0,0,0,0.1-0.1,0.1h-1.7c-0.2,0.5-0.4,1.1-0.7,1.5l1.2,1c0,0,0,0,0,0.1s0,0,0,0.1l-1.2,1.4
			c0,0-0.1,0-0.1,0l-1.3-1.2c-0.5,0.3-1,0.5-1.6,0.6v1.8C1215,574.1,1215,574.1,1215,574.1L1215,574.1z M1213.2,573.9h1.7v-1.8
			c0,0,0-0.1,0.1-0.1c0.6-0.1,1.2-0.3,1.7-0.6c0,0,0.1,0,0.1,0l1.3,1.1l1.1-1.2l-1.2-1c0,0,0-0.1,0-0.1c0.3-0.5,0.6-1,0.7-1.6
			c0,0,0-0.1,0.1-0.1h1.7v-1.7h-1.7c0,0-0.1,0-0.1-0.1c-0.1-0.7-0.3-1.3-0.7-1.8c0,0,0-0.1,0-0.1l1.1-1l-1.1-1.2l-1.2,1.1
			c0,0-0.1,0-0.1,0c-0.5-0.4-1.1-0.6-1.7-0.7c0,0-0.1,0-0.1-0.1v-1.6h-1.7v1.5c0,0,0,0.1-0.1,0.1c-0.6,0.1-1.2,0.3-1.8,0.7
			c0,0-0.1,0-0.1,0l-1.1-1l-1.2,1.2l1.1,1c0,0,0,0.1,0,0.1c-0.4,0.6-0.6,1.2-0.7,1.9c0,0,0,0.1-0.1,0.1h-1.6v1.6h1.7
			c0,0,0.1,0,0.1,0.1c0.1,0.5,0.4,1,0.7,1.5c0,0,0,0.1,0,0.1l-1.1,1l1.2,1.2l1.1-1c0,0,0.1,0,0.1,0c0.5,0.3,1.1,0.6,1.7,0.7
			c0,0,0.1,0,0.1,0.1L1213.2,573.9L1213.2,573.9z M1214,569.8c-1.3,0-2.4-1.1-2.4-2.4c0-1.3,1.1-2.4,2.4-2.4c1.3,0,2.4,1.1,2.4,2.4
			c0,0.6-0.2,1.2-0.7,1.7C1215.3,569.6,1214.7,569.8,1214,569.8L1214,569.8z M1214,565.2c-1.2,0-2.2,1-2.2,2.2c0,1.2,1,2.2,2.2,2.2
			c0.6,0,1.2-0.2,1.6-0.7c0.4-0.4,0.7-1,0.6-1.6C1216.3,566.2,1215.3,565.2,1214,565.2z"/>
		<path style="fill:#707070" d="M1213.1,574.3c-0.1,0-0.1,0-0.2-0.1c-0.1,0-0.1-0.1-0.1-0.2v-1.7c-0.5-0.1-0.9-0.3-1.3-0.6l-0.9,0.9
			c-0.1,0.1-0.3,0.1-0.4,0l-1.3-1.3c-0.1-0.1-0.1-0.2-0.1-0.3v0l1-1c-0.2-0.4-0.4-0.8-0.5-1.2h-1.6c-0.2,0-0.3-0.1-0.3-0.3v-1.8
			c0-0.2,0.1-0.3,0.3-0.3h1.5c0.1-0.6,0.3-1.1,0.6-1.6l-0.9-0.9c-0.1-0.1-0.1-0.3,0-0.4l0.1-0.1h0l1.2-1.2c0.1-0.1,0.3-0.1,0.4,0
			l0.9,0.9c0.5-0.3,0.9-0.5,1.5-0.6v-1.4c0-0.2,0.1-0.3,0.3-0.3h1.8c0.2,0,0.3,0.1,0.3,0.3v1.4c0.5,0.1,1,0.3,1.4,0.6l1.1-1
			c0.1,0,0.1-0.1,0.2-0.1c0.1,0,0.2,0,0.2,0.1l1.2,1.3c0.1,0,0.1,0.1,0.1,0.2c0,0.1,0,0.2-0.1,0.2l-1,0.9c0.3,0.5,0.5,1,0.6,1.5h1.5
			c0.2,0,0.3,0.1,0.3,0.3v1.8c0,0.2-0.1,0.3-0.3,0.3h-1.6c-0.1,0.5-0.3,0.9-0.6,1.3l1,0.9c0.1,0,0.1,0.1,0.1,0.2
			c0,0.1,0,0.2-0.1,0.2l-1.2,1.3c-0.1,0.1-0.1,0.1-0.2,0.1c-0.1,0-0.2,0-0.2-0.1l-1.2-1c-0.4,0.2-0.9,0.4-1.4,0.5v1.7
			c0,0.2-0.1,0.3-0.3,0.3L1213.1,574.3C1213.1,574.3,1213.1,574.3,1213.1,574.3L1213.1,574.3z M1213.4,573.7h1.2v-1.6
			c0-0.1,0.1-0.2,0.2-0.3c0.6-0.1,1.1-0.3,1.6-0.6c0.1-0.1,0.2,0,0.3,0l1.1,1l0.8-0.9l-1-0.9c-0.1-0.1-0.1-0.3-0.1-0.4
			c0.3-0.5,0.6-1,0.7-1.5c0-0.1,0.2-0.2,0.3-0.2h1.5V567h-1.4c-0.1,0-0.3-0.1-0.3-0.2c-0.1-0.6-0.3-1.2-0.7-1.8
			c-0.1-0.1-0.1-0.3,0.1-0.4l1-0.9l-0.8-0.9l-1.1,0.9c-0.1,0.1-0.2,0.1-0.3,0c-0.5-0.3-1-0.6-1.6-0.7c-0.1,0-0.2-0.2-0.2-0.3v-1.4
			h-1.2v1.3c0,0.1-0.1,0.2-0.2,0.3c-0.6,0.1-1.2,0.3-1.7,0.7c-0.1,0.1-0.3,0.1-0.4,0l-0.9-0.9l-0.9,0.9l0.9,0.9
			c0.1,0.1,0.1,0.2,0,0.4c-0.4,0.5-0.6,1.2-0.7,1.8c0,0.1-0.1,0.2-0.3,0.2h-1.4v1.2h1.5c0.1,0,0.2,0.1,0.3,0.2
			c0.1,0.5,0.3,1,0.6,1.4c0.1,0.1,0.1,0.3,0,0.4l-0.9,0.9l0.9,0.9l0.9-0.9c0.1-0.1,0.2-0.1,0.4,0c0.5,0.3,1,0.5,1.6,0.7
			c0.1,0,0.2,0.1,0.2,0.3L1213.4,573.7L1213.4,573.7z M1214.1,570L1214.1,570c-1.5,0-2.6-1.2-2.6-2.6c0-0.7,0.3-1.3,0.8-1.8
			s1.2-0.8,1.8-0.8h0c1.4,0,2.6,1.2,2.6,2.6c0,0.7-0.3,1.4-0.8,1.8C1215.4,569.7,1214.7,570,1214.1,570z M1214,565.4
			c-0.5,0-1.1,0.2-1.4,0.6c-0.4,0.4-0.6,0.9-0.6,1.4c0,0.5,0.2,1.1,0.6,1.4c0.4,0.4,0.9,0.6,1.4,0.6h0c0.5,0,1.1-0.2,1.4-0.6
			c0.4-0.4,0.6-0.9,0.6-1.4C1216.1,566.3,1215.2,565.4,1214,565.4L1214,565.4z"/>
	</g>
</g>
<g id="グループ_20166" transform="translate(-1498.639 -273.762)">
	<g id="グループ_20159">
		<g id="パス_1160">
			<path style="fill:#E8E8E8" d="M1513.3,457.5h-8.3c-0.6,0-1.1-0.5-1.1-1.1v-5.2c0-0.6,0.5-1.1,1.1-1.1h8.3c0.6,0,1.1,0.5,1.1,1.1v5.2
				C1514.3,457,1513.9,457.5,1513.3,457.5z"/>
			<path style="fill:#707070" d="M1504.9,457.7c-0.3,0-0.7-0.1-0.9-0.4s-0.4-0.5-0.4-0.9v-5.2c0-0.3,0.1-0.7,0.4-0.9s0.6-0.4,0.9-0.4h8.3
				c0.7,0,1.3,0.6,1.3,1.3v5.2c0,0.7-0.6,1.3-1.3,1.3H1504.9C1505,457.7,1505,457.7,1504.9,457.7z M1505,450.3
				c-0.2,0-0.4,0.1-0.6,0.2s-0.2,0.4-0.2,0.6v5.2c0,0.2,0.1,0.5,0.2,0.6s0.4,0.2,0.6,0.2h8.3c0.5,0,0.9-0.4,0.9-0.9v-5.2
				c0-0.5-0.4-0.9-0.9-0.9H1505z"/>
		</g>
		<g id="パス_1161">
			<path class="st18" d="M1513.3,457.5h-8.3c-0.6,0-1.1-0.5-1.1-1.1v-5.2c0-0.6,0.5-1.1,1.1-1.1h8.3c0.6,0,1.1,0.5,1.1,1.1v5.2
				C1514.4,457,1513.9,457.5,1513.3,457.5z M1505,450.2c-0.6,0-1,0.4-1,1v5.2c0,0.5,0.4,1,1,1h8.3c0.6,0,1-0.4,1-1v-5.2
				c0-0.5-0.4-1-1-1H1505z"/>
			<path style="fill:#707070" d="M1513.3,457.7h-8.3c-0.7,0-1.3-0.6-1.3-1.3v-5.2c0-0.7,0.6-1.3,1.3-1.3h8.3c0.7,0,1.3,0.6,1.3,1.3v5.2
				C1514.6,457.1,1514,457.7,1513.3,457.7z M1505,450.4c-0.4,0-0.8,0.3-0.8,0.8v5.2c0,0.4,0.3,0.8,0.8,0.8h8.3
				c0.4,0,0.8-0.3,0.8-0.8v-5.2c0-0.4-0.3-0.8-0.8-0.8H1505z"/>
		</g>
	</g>
	<g id="グループ_20160">
		<g id="パス_1162">
			<path style="fill:#FFFFFF" d="M1512.4,449.1h-10.7c-0.5,0-1,0.4-1,1v5.5c0,0.5,0.4,1,1,1h1.4l1,2.2l1-2.2h7.3c0.5,0,1-0.4,1-1V450
				C1513.4,449.5,1513,449.1,1512.4,449.1C1512.5,449.1,1512.5,449.1,1512.4,449.1z"/>
			<path style="fill:#707070" d="M1504.1,459.2l-1.1-2.5h-1.2c-0.3,0-0.6-0.1-0.8-0.3c-0.2-0.2-0.3-0.5-0.3-0.8V450c0-0.3,0.1-0.6,0.3-0.8
				c0.2-0.2,0.5-0.3,0.8-0.3h10.7c0.3,0,0.6,0.1,0.8,0.3c0.2,0.2,0.3,0.5,0.3,0.8v5.5c0,0.3-0.1,0.6-0.3,0.8
				c-0.2,0.2-0.5,0.3-0.8,0.3h-7.2L1504.1,459.2z M1501.8,449.3c-0.2,0-0.4,0.1-0.5,0.2c-0.2,0.1-0.2,0.3-0.2,0.5v5.5
				c0,0.2,0.1,0.4,0.2,0.5s0.3,0.2,0.5,0.2h1.5l0.9,1.9l0.9-1.9h7.4c0.2,0,0.4-0.1,0.5-0.2c0.1-0.1,0.2-0.3,0.2-0.5V450
				c0-0.2-0.1-0.4-0.2-0.5s-0.3-0.2-0.5-0.2V449v0.2L1501.8,449.3L1501.8,449.3L1501.8,449.3z"/>
		</g>
		<g id="パス_1163">
			<path style="fill:#121B3D" d="M1504.1,458.8C1504.1,458.8,1504.1,458.8,1504.1,458.8l-1.1-2.2h-1.3c-0.6,0-1-0.5-1-1V450c0-0.6,0.5-1,1-1
				h10.7c0.6,0,1,0.5,1,1v5.5c0,0.6-0.5,1-1,1h-7.3L1504.1,458.8C1504.2,458.8,1504.2,458.8,1504.1,458.8z M1501.8,449.1
				c-0.5,0-0.9,0.4-0.9,0.9v5.5c0,0.5,0.4,0.9,0.9,0.9h1.4c0,0,0.1,0,0.1,0l0.9,2.1l0.9-2.1c0,0,0,0,0.1,0h7.3
				c0.5,0,0.9-0.4,0.9-0.9V450c0-0.5-0.4-0.9-0.9-0.9H1501.8L1501.8,449.1z"/>
			<path style="fill:#707070" d="M1504.1,459L1504.1,459l-0.5,0l0.2-0.2l-0.9-2h-1.2c-0.7,0-1.2-0.6-1.2-1.2V450c0-0.7,0.6-1.2,1.2-1.2h10.7
				c0.7,0,1.2,0.6,1.2,1.2v5.5c0,0.7-0.6,1.2-1.2,1.2h-7.2l-0.8,1.8h0.1l-0.2,0.2C1504.3,458.9,1504.2,459,1504.1,459L1504.1,459
				L1504.1,459z M1503.1,456.2c0.1,0,0.2,0.1,0.2,0.2l0.8,1.7l0.7-1.7c0.1-0.1,0.1-0.2,0.2-0.2h7.3c0.4,0,0.7-0.3,0.7-0.7V450
				c0-0.4-0.3-0.7-0.7-0.7h-10.7c-0.4,0-0.7,0.3-0.7,0.7v5.5c0,0.4,0.3,0.7,0.7,0.7H1503.1C1503.1,456.2,1503.1,456.2,1503.1,456.2
				L1503.1,456.2z"/>
		</g>
	</g>
	<g id="グループ_20165">
		<g id="グループ_20161">
			<g id="楕円形_340">
				<circle style="fill:#121B3D" cx="1503.6" cy="452.9" r="0.6"/>
				<path style="fill:#707070" d="M1503.6,453.7c-0.4,0-0.8-0.4-0.8-0.8s0.4-0.8,0.8-0.8c0.4,0,0.8,0.4,0.8,0.8S1504,453.7,1503.6,453.7z
					 M1503.6,452.4c-0.2,0-0.4,0.2-0.4,0.4s0.2,0.4,0.4,0.4c0.2,0,0.4-0.2,0.4-0.4S1503.8,452.4,1503.6,452.4z"/>
			</g>
		</g>
		<g id="グループ_20162">
			<g id="楕円形_341">
				<circle style="fill:#121B3D" cx="1506" cy="452.9" r="0.6"/>
				<path style="fill:#707070" d="M1506,453.7c-0.4,0-0.8-0.4-0.8-0.8s0.4-0.8,0.8-0.8c0.4,0,0.8,0.4,0.8,0.8S1506.5,453.7,1506,453.7z
					 M1506,452.4c-0.2,0-0.4,0.2-0.4,0.4s0.2,0.4,0.4,0.4c0.2,0,0.4-0.2,0.4-0.4S1506.3,452.4,1506,452.4z"/>
			</g>
		</g>
		<g id="グループ_20163">
			<g id="楕円形_342">
				<circle style="fill:#121B3D" cx="1508.5" cy="452.9" r="0.6"/>
				<path style="fill:#707070" d="M1508.5,453.7c-0.4,0-0.8-0.4-0.8-0.8s0.4-0.8,0.8-0.8c0.4,0,0.8,0.4,0.8,0.8S1508.9,453.7,1508.5,453.7z
					 M1508.5,452.4c-0.2,0-0.4,0.2-0.4,0.4s0.2,0.4,0.4,0.4c0.2,0,0.4-0.2,0.4-0.4S1508.7,452.4,1508.5,452.4z"/>
			</g>
		</g>
		<g id="グループ_20164">
			<g id="楕円形_343">
				<circle style="fill:#121B3D" cx="1511" cy="452.9" r="0.6"/>
				<path style="fill:#707070" d="M1511,453.7c-0.4,0-0.8-0.4-0.8-0.8s0.4-0.8,0.8-0.8s0.8,0.4,0.8,0.8S1511.4,453.7,1511,453.7z M1511,452.4
					c-0.2,0-0.4,0.2-0.4,0.4s0.2,0.4,0.4,0.4c0.2,0,0.4-0.2,0.4-0.4S1511.2,452.4,1511,452.4z"/>
			</g>
		</g>
	</g>
</g>
</svg>
